G04 Layer_Color=32896*
%FSLAX25Y25*%
%MOIN*%
G70*
G01*
G75*
%ADD48C,0.00787*%
%ADD61C,0.00591*%
D48*
X27756Y254722D02*
Y257346D01*
X29068Y258658D01*
X30380Y257346D01*
Y254722D01*
X34315Y255378D02*
X33659Y254722D01*
X32348D01*
X31692Y255378D01*
Y258002D01*
X32348Y258658D01*
X33659D01*
X34315Y258002D01*
X38251Y255378D02*
X37595Y254722D01*
X36283D01*
X35627Y255378D01*
Y258002D01*
X36283Y258658D01*
X37595D01*
X38251Y258002D01*
X30380Y261991D02*
X29724Y261335D01*
X28412D01*
X27756Y261991D01*
Y262647D01*
X28412Y263303D01*
X29724D01*
X30380Y263959D01*
Y264615D01*
X29724Y265271D01*
X28412D01*
X27756Y264615D01*
X31692Y265271D02*
Y261335D01*
X33659D01*
X34315Y261991D01*
Y263303D01*
X33659Y263959D01*
X31692D01*
X33004D02*
X34315Y265271D01*
X35627Y265927D02*
X38251D01*
X41531Y261335D02*
X40219D01*
X39563Y261991D01*
Y264615D01*
X40219Y265271D01*
X41531D01*
X42187Y264615D01*
Y261991D01*
X41531Y261335D01*
X43499D02*
Y264615D01*
X44155Y265271D01*
X45467D01*
X46123Y264615D01*
Y261335D01*
X47435D02*
X50058D01*
X48746D01*
Y265271D01*
X30380Y269260D02*
X29724Y268604D01*
X28412D01*
X27756Y269260D01*
Y271883D01*
X28412Y272539D01*
X29724D01*
X30380Y271883D01*
Y270571D01*
X29068D01*
X31692Y272539D02*
Y268604D01*
X34315Y272539D01*
Y268604D01*
X35627D02*
Y272539D01*
X37595D01*
X38251Y271883D01*
Y269260D01*
X37595Y268604D01*
X35627D01*
X30773Y57708D02*
X30117Y57052D01*
X28806D01*
X28150Y57708D01*
Y60331D01*
X28806Y60987D01*
X30117D01*
X30773Y60331D01*
X32085Y60987D02*
Y58363D01*
X33397Y57052D01*
X34709Y58363D01*
Y60987D01*
Y59019D01*
X32085D01*
X36021Y60987D02*
Y57052D01*
X38645Y60987D01*
Y57052D01*
X39957D02*
Y60987D01*
X42581D01*
X30773Y64320D02*
X30117Y63664D01*
X28806D01*
X28150Y64320D01*
Y66944D01*
X28806Y67600D01*
X30117D01*
X30773Y66944D01*
Y65632D01*
X29462D01*
X32085Y67600D02*
Y63664D01*
X34709Y67600D01*
Y63664D01*
X36021D02*
Y67600D01*
X37989D01*
X38645Y66944D01*
Y64320D01*
X37989Y63664D01*
X36021D01*
X30773Y70933D02*
X30117Y70277D01*
X28806D01*
X28150Y70933D01*
Y73557D01*
X28806Y74213D01*
X30117D01*
X30773Y73557D01*
X32085Y74213D02*
Y71589D01*
X33397Y70277D01*
X34709Y71589D01*
Y74213D01*
Y72245D01*
X32085D01*
X36021Y74213D02*
Y70277D01*
X38645Y74213D01*
Y70277D01*
X39957D02*
Y74213D01*
Y72245D01*
X42581D01*
Y70277D01*
Y74213D01*
X296850Y48524D02*
X292915D01*
Y50491D01*
X293571Y51147D01*
X294227D01*
X294882Y50491D01*
Y48524D01*
Y50491D01*
X295538Y51147D01*
X296194D01*
X296850Y50491D01*
Y48524D01*
Y52459D02*
Y55083D01*
Y53771D01*
X292915D01*
X294882Y56395D02*
Y59019D01*
X296194Y57707D02*
X293571D01*
X289582Y51147D02*
X290238Y50491D01*
Y49180D01*
X289582Y48524D01*
X286958D01*
X286302Y49180D01*
Y50491D01*
X286958Y51147D01*
X288270D01*
Y49836D01*
X286302Y52459D02*
X290238D01*
X286302Y55083D01*
X290238D01*
Y56395D02*
X286302D01*
Y58363D01*
X286958Y59019D01*
X289582D01*
X290238Y58363D01*
Y56395D01*
X30773Y98751D02*
X30117Y98095D01*
X28806D01*
X28150Y98751D01*
Y101375D01*
X28806Y102031D01*
X30117D01*
X30773Y101375D01*
Y100063D01*
X29462D01*
X32085Y102031D02*
Y98095D01*
X34709Y102031D01*
Y98095D01*
X36021D02*
Y102031D01*
X37989D01*
X38645Y101375D01*
Y98751D01*
X37989Y98095D01*
X36021D01*
X28150Y104708D02*
Y108643D01*
X30117D01*
X30773Y107987D01*
Y107331D01*
X30117Y106675D01*
X28150D01*
X30117D01*
X30773Y106019D01*
Y105364D01*
X30117Y104708D01*
X28150D01*
Y115256D02*
Y112632D01*
X29462Y111320D01*
X30773Y112632D01*
Y115256D01*
Y113288D01*
X28150D01*
X28642Y209545D02*
Y212169D01*
X29954Y213481D01*
X31266Y212169D01*
Y209545D01*
X35201Y210201D02*
X34545Y209545D01*
X33233D01*
X32577Y210201D01*
Y212825D01*
X33233Y213481D01*
X34545D01*
X35201Y212825D01*
X39137Y210201D02*
X38481Y209545D01*
X37169D01*
X36513Y210201D01*
Y212825D01*
X37169Y213481D01*
X38481D01*
X39137Y212825D01*
X31266Y216814D02*
X30610Y216158D01*
X29298D01*
X28642Y216814D01*
Y217470D01*
X29298Y218126D01*
X30610D01*
X31266Y218782D01*
Y219438D01*
X30610Y220094D01*
X29298D01*
X28642Y219438D01*
X32577Y220094D02*
Y216158D01*
X34545D01*
X35201Y216814D01*
Y218126D01*
X34545Y218782D01*
X32577D01*
X33889D02*
X35201Y220094D01*
X36513Y220750D02*
X39137D01*
X42417Y216158D02*
X41105D01*
X40449Y216814D01*
Y219438D01*
X41105Y220094D01*
X42417D01*
X43073Y219438D01*
Y216814D01*
X42417Y216158D01*
X44385D02*
Y219438D01*
X45041Y220094D01*
X46353D01*
X47008Y219438D01*
Y216158D01*
X48320D02*
X50944D01*
X49632D01*
Y220094D01*
X31266Y224082D02*
X30610Y223427D01*
X29298D01*
X28642Y224082D01*
Y226706D01*
X29298Y227362D01*
X30610D01*
X31266Y226706D01*
Y225394D01*
X29954D01*
X32577Y227362D02*
Y223427D01*
X35201Y227362D01*
Y223427D01*
X36513D02*
Y227362D01*
X38481D01*
X39137Y226706D01*
Y224082D01*
X38481Y223427D01*
X36513D01*
X31167Y157609D02*
X30511Y156953D01*
X29199D01*
X28543Y157609D01*
Y160233D01*
X29199Y160889D01*
X30511D01*
X31167Y160233D01*
Y158921D01*
X29855D01*
X32479Y160889D02*
Y156953D01*
X35103Y160889D01*
Y156953D01*
X36415D02*
Y160889D01*
X38383D01*
X39039Y160233D01*
Y157609D01*
X38383Y156953D01*
X36415D01*
X28543Y163566D02*
X31167D01*
X29855D01*
Y167501D01*
X32479Y163566D02*
X35103Y167501D01*
Y163566D02*
X32479Y167501D01*
X28543Y174114D02*
Y170178D01*
X30511D01*
X31167Y170834D01*
Y172146D01*
X30511Y172802D01*
X28543D01*
X29855D02*
X31167Y174114D01*
X32479Y170178D02*
X35103Y174114D01*
Y170178D02*
X32479Y174114D01*
X278674Y183825D02*
X279329Y183169D01*
Y181857D01*
X278674Y181201D01*
X276050D01*
X275394Y181857D01*
Y183169D01*
X276050Y183825D01*
X275394Y185136D02*
Y186448D01*
Y185793D01*
X279329D01*
X278674Y185136D01*
X275394Y188416D02*
Y189728D01*
Y189072D01*
X279329D01*
X278674Y188416D01*
X339469Y206201D02*
Y203577D01*
X338157Y204889D02*
X340781D01*
X337501Y202265D02*
X340125D01*
X341437Y200953D01*
X340125Y199641D01*
X337501D01*
Y198329D02*
Y197017D01*
Y197673D01*
X341437D01*
Y198329D01*
Y197017D01*
Y195050D02*
X337501D01*
X341437Y192426D01*
X337501D01*
X338157Y181234D02*
X337501Y181890D01*
Y183202D01*
X338157Y183858D01*
X340781D01*
X341437Y183202D01*
Y181890D01*
X340781Y181234D01*
X339469D01*
Y182546D01*
X341437Y179922D02*
X337501D01*
X341437Y177299D01*
X337501D01*
Y175987D02*
X341437D01*
Y174019D01*
X340781Y173363D01*
X338157D01*
X337501Y174019D01*
Y175987D01*
X183348Y207382D02*
Y211580D01*
X185447Y209481D02*
X181249D01*
X180199Y217877D02*
Y213679D01*
X184397Y217877D01*
X185447D01*
X186496Y216828D01*
Y214729D01*
X185447Y213679D01*
X180199Y223125D02*
X186496D01*
X183348Y219976D01*
Y224174D01*
X186496Y226273D02*
X182298D01*
X180199Y228373D01*
X182298Y230471D01*
X186496D01*
X170753Y207382D02*
X174951D01*
X177050Y209481D01*
X174951Y211580D01*
X170753D01*
X173901D01*
Y207382D01*
X177050Y213679D02*
Y215778D01*
Y214729D01*
X170753D01*
Y213679D01*
Y215778D01*
Y218927D02*
X177050D01*
X170753Y223125D01*
X177050D01*
X170753Y229422D02*
Y225224D01*
X174951Y229422D01*
X176001D01*
X177050Y228373D01*
Y226273D01*
X176001Y225224D01*
X161307Y207382D02*
X165505D01*
X167604Y209481D01*
X165505Y211580D01*
X161307D01*
X164455D01*
Y207382D01*
X167604Y213679D02*
Y215778D01*
Y214729D01*
X161307D01*
Y213679D01*
Y215778D01*
Y218927D02*
X167604D01*
X161307Y223125D01*
X167604D01*
X166554Y225224D02*
X167604Y226273D01*
Y228373D01*
X166554Y229422D01*
X165505D01*
X164455Y228373D01*
Y227323D01*
Y228373D01*
X163406Y229422D01*
X162356D01*
X161307Y228373D01*
Y226273D01*
X162356Y225224D01*
X151860Y207382D02*
X156058D01*
X158157Y209481D01*
X156058Y211580D01*
X151860D01*
X155009D01*
Y207382D01*
X158157Y213679D02*
Y215778D01*
Y214729D01*
X151860D01*
Y213679D01*
Y215778D01*
Y218927D02*
X158157D01*
X151860Y223125D01*
X158157D01*
X151860Y228373D02*
X158157D01*
X155009Y225224D01*
Y229422D01*
X142414Y207382D02*
X146612D01*
X148711Y209481D01*
X146612Y211580D01*
X142414D01*
X145563D01*
Y207382D01*
X148711Y213679D02*
Y215778D01*
Y214729D01*
X142414D01*
Y213679D01*
Y215778D01*
Y218927D02*
X148711D01*
X142414Y223125D01*
X148711D01*
Y229422D02*
Y225224D01*
X145563D01*
X146612Y227323D01*
Y228373D01*
X145563Y229422D01*
X143463D01*
X142414Y228373D01*
Y226273D01*
X143463Y225224D01*
X139265Y207382D02*
Y209481D01*
Y208431D01*
X132967D01*
Y207382D01*
Y209481D01*
X139265Y215778D02*
Y213679D01*
X138215Y212630D01*
X134017D01*
X132967Y213679D01*
Y215778D01*
X134017Y216828D01*
X138215D01*
X139265Y215778D01*
X132967Y218927D02*
X139265D01*
Y222075D01*
X138215Y223125D01*
X136116D01*
X135067Y222075D01*
Y218927D01*
X126670Y207382D02*
Y211580D01*
X128769Y209481D02*
X124571D01*
X129818Y217877D02*
Y213679D01*
X126670D01*
X127719Y215778D01*
Y216828D01*
X126670Y217877D01*
X124571D01*
X123521Y216828D01*
Y214729D01*
X124571Y213679D01*
X129818Y219976D02*
X125620D01*
X123521Y222075D01*
X125620Y224174D01*
X129818D01*
X119322Y211580D02*
X120372Y210530D01*
Y208431D01*
X119322Y207382D01*
X115124D01*
X114075Y208431D01*
Y210530D01*
X115124Y211580D01*
X117223D01*
Y209481D01*
X114075Y213679D02*
X120372D01*
X114075Y217877D01*
X120372D01*
Y219976D02*
X114075D01*
Y223125D01*
X115124Y224174D01*
X119322D01*
X120372Y223125D01*
Y219976D01*
X148327Y82271D02*
X152000D01*
X150163Y80434D02*
Y84108D01*
X153837Y80434D02*
X154755Y79516D01*
X156592D01*
X157510Y80434D01*
Y81353D01*
X156592Y82271D01*
X155674D01*
X156592D01*
X157510Y83189D01*
Y84108D01*
X156592Y85026D01*
X154755D01*
X153837Y84108D01*
X159347Y79516D02*
Y83189D01*
X161184Y85026D01*
X163020Y83189D01*
Y79516D01*
X164857Y80434D02*
X165775Y79516D01*
X167612D01*
X168530Y80434D01*
Y81353D01*
X167612Y82271D01*
X166693D01*
X167612D01*
X168530Y83189D01*
Y84108D01*
X167612Y85026D01*
X165775D01*
X164857Y84108D01*
X152000Y88936D02*
X151082Y88018D01*
X149245D01*
X148327Y88936D01*
Y89855D01*
X149245Y90773D01*
X151082D01*
X152000Y91691D01*
Y92610D01*
X151082Y93528D01*
X149245D01*
X148327Y92610D01*
X153837Y88018D02*
Y93528D01*
X155674Y91691D01*
X157510Y93528D01*
Y88018D01*
X163020Y88936D02*
X162102Y88018D01*
X160265D01*
X159347Y88936D01*
Y92610D01*
X160265Y93528D01*
X162102D01*
X163020Y92610D01*
X152000Y97438D02*
X151082Y96520D01*
X149245D01*
X148327Y97438D01*
Y101111D01*
X149245Y102030D01*
X151082D01*
X152000Y101111D01*
Y99275D01*
X150163D01*
X153837Y102030D02*
Y96520D01*
X157510Y102030D01*
Y96520D01*
X159347D02*
Y102030D01*
X162102D01*
X163020Y101111D01*
Y97438D01*
X162102Y96520D01*
X159347D01*
X152000Y105940D02*
X151082Y105022D01*
X149245D01*
X148327Y105940D01*
Y106858D01*
X149245Y107776D01*
X151082D01*
X152000Y108695D01*
Y109613D01*
X151082Y110531D01*
X149245D01*
X148327Y109613D01*
X153837Y105022D02*
Y110531D01*
X155674Y108695D01*
X157510Y110531D01*
Y105022D01*
X159347D02*
Y110531D01*
X162102D01*
X163020Y109613D01*
Y105940D01*
X162102Y105022D01*
X159347D01*
X148327Y152940D02*
X152000D01*
X150163Y151104D02*
Y154777D01*
X153837Y151104D02*
X154755Y150185D01*
X156592D01*
X157510Y151104D01*
Y152022D01*
X156592Y152940D01*
X155674D01*
X156592D01*
X157510Y153859D01*
Y154777D01*
X156592Y155695D01*
X154755D01*
X153837Y154777D01*
X159347Y150185D02*
Y153859D01*
X161184Y155695D01*
X163020Y153859D01*
Y150185D01*
X164857Y151104D02*
X165775Y150185D01*
X167612D01*
X168530Y151104D01*
Y152022D01*
X167612Y152940D01*
X166693D01*
X167612D01*
X168530Y153859D01*
Y154777D01*
X167612Y155695D01*
X165775D01*
X164857Y154777D01*
X152000Y159606D02*
X151082Y158687D01*
X149245D01*
X148327Y159606D01*
Y163279D01*
X149245Y164197D01*
X151082D01*
X152000Y163279D01*
Y161442D01*
X150163D01*
X153837Y164197D02*
Y158687D01*
X157510Y164197D01*
Y158687D01*
X159347D02*
Y164197D01*
X162102D01*
X163020Y163279D01*
Y159606D01*
X162102Y158687D01*
X159347D01*
X148327Y172699D02*
Y167189D01*
X151082D01*
X152000Y168107D01*
Y169944D01*
X151082Y170862D01*
X148327D01*
X150163D02*
X152000Y172699D01*
X153837Y167189D02*
X157510Y172699D01*
Y167189D02*
X153837Y172699D01*
X148327Y175691D02*
X152000D01*
X150163D01*
Y181201D01*
X153837Y175691D02*
X157510Y181201D01*
Y175691D02*
X153837Y181201D01*
X186496Y48622D02*
Y52820D01*
Y50721D01*
X180199D01*
X186496Y54919D02*
X180199Y59117D01*
X186496D02*
X180199Y54919D01*
Y64365D02*
X186496D01*
X183348Y61216D01*
Y65415D01*
X170753Y48622D02*
X177050D01*
Y51771D01*
X176001Y52820D01*
X173901D01*
X172852Y51771D01*
Y48622D01*
Y50721D02*
X170753Y52820D01*
X177050Y54919D02*
X170753Y59117D01*
X177050D02*
X170753Y54919D01*
Y64365D02*
X177050D01*
X173901Y61216D01*
Y65415D01*
X167604Y48622D02*
Y52820D01*
Y50721D01*
X161307D01*
X167604Y54919D02*
X161307Y59117D01*
X167604D02*
X161307Y54919D01*
X166554Y61216D02*
X167604Y62266D01*
Y64365D01*
X166554Y65415D01*
X165505D01*
X164455Y64365D01*
Y63315D01*
Y64365D01*
X163406Y65415D01*
X162356D01*
X161307Y64365D01*
Y62266D01*
X162356Y61216D01*
X151860Y48622D02*
X158157D01*
Y51771D01*
X157108Y52820D01*
X155009D01*
X153959Y51771D01*
Y48622D01*
Y50721D02*
X151860Y52820D01*
X158157Y54919D02*
X151860Y59117D01*
X158157D02*
X151860Y54919D01*
X157108Y61216D02*
X158157Y62266D01*
Y64365D01*
X157108Y65415D01*
X156058D01*
X155009Y64365D01*
Y63315D01*
Y64365D01*
X153959Y65415D01*
X152910D01*
X151860Y64365D01*
Y62266D01*
X152910Y61216D01*
X142414Y48622D02*
X148711D01*
X146612Y50721D01*
X148711Y52820D01*
X142414D01*
X148711Y58068D02*
Y55969D01*
X147661Y54919D01*
X143463D01*
X142414Y55969D01*
Y58068D01*
X143463Y59117D01*
X147661D01*
X148711Y58068D01*
X147661Y65415D02*
X148711Y64365D01*
Y62266D01*
X147661Y61216D01*
X146612D01*
X145563Y62266D01*
Y64365D01*
X144513Y65415D01*
X143463D01*
X142414Y64365D01*
Y62266D01*
X143463Y61216D01*
X148711Y67514D02*
Y69613D01*
Y68563D01*
X142414D01*
Y67514D01*
Y69613D01*
X132967Y48622D02*
X139265D01*
X137166Y50721D01*
X139265Y52820D01*
X132967D01*
X139265Y54919D02*
Y57018D01*
Y55969D01*
X132967D01*
Y54919D01*
Y57018D01*
X138215Y64365D02*
X139265Y63315D01*
Y61216D01*
X138215Y60167D01*
X137166D01*
X136116Y61216D01*
Y63315D01*
X135067Y64365D01*
X134017D01*
X132967Y63315D01*
Y61216D01*
X134017Y60167D01*
X139265Y69613D02*
Y67514D01*
X138215Y66464D01*
X134017D01*
X132967Y67514D01*
Y69613D01*
X134017Y70662D01*
X138215D01*
X139265Y69613D01*
X128769Y52820D02*
X129818Y51771D01*
Y49672D01*
X128769Y48622D01*
X127719D01*
X126670Y49672D01*
Y51771D01*
X125620Y52820D01*
X124571D01*
X123521Y51771D01*
Y49672D01*
X124571Y48622D01*
X128769Y59117D02*
X129818Y58068D01*
Y55969D01*
X128769Y54919D01*
X124571D01*
X123521Y55969D01*
Y58068D01*
X124571Y59117D01*
X129818Y61216D02*
X123521D01*
X125620D01*
X129818Y65415D01*
X126670Y62266D01*
X123521Y65415D01*
X119322Y52820D02*
X120372Y51771D01*
Y49672D01*
X119322Y48622D01*
X115124D01*
X114075Y49672D01*
Y51771D01*
X115124Y52820D01*
X117223D01*
Y50721D01*
X114075Y54919D02*
X120372D01*
X114075Y59117D01*
X120372D01*
Y61216D02*
X114075D01*
Y64365D01*
X115124Y65415D01*
X119322D01*
X120372Y64365D01*
Y61216D01*
D61*
X272342Y178347D02*
X273130D01*
Y191732D01*
X272342D02*
X273130D01*
X266043Y178347D02*
X266831D01*
X266043D02*
Y191732D01*
X266831D01*
M02*
