G04 Layer_Color=8388736*
%FSLAX25Y25*%
%MOIN*%
G70*
G01*
G75*
%ADD62C,0.03950*%
%ADD63R,0.05131X0.06706*%
%ADD64R,0.05524X0.07296*%
%ADD65R,0.05328X0.06115*%
%ADD66R,0.08674X0.08674*%
%ADD67R,0.06115X0.05328*%
%ADD68R,0.06706X0.07099*%
%ADD69R,0.05524X0.05524*%
%ADD70R,0.08674X0.08674*%
%ADD71R,0.04343X0.03162*%
%ADD72R,0.07099X0.03162*%
%ADD73O,0.07099X0.03162*%
%ADD74R,0.12611X0.08674*%
%ADD75R,0.03162X0.04343*%
%ADD76R,0.04147X0.03753*%
%ADD77R,0.03753X0.04147*%
%ADD78O,0.04934X0.03162*%
%ADD79R,0.04934X0.03162*%
%ADD80R,0.11824X0.07887*%
%ADD81R,0.07493X0.08674*%
%ADD82R,0.06312X0.14186*%
%ADD83R,0.02768X0.04737*%
%ADD84R,0.06312X0.06706*%
%ADD85R,0.10642X0.08674*%
%ADD86R,0.09855X0.02768*%
%ADD87R,0.03162X0.08674*%
%ADD88O,0.03162X0.08674*%
%ADD89O,0.03162X0.07099*%
%ADD90R,0.03162X0.07099*%
%ADD91O,0.06902X0.01784*%
%ADD92O,0.01784X0.06902*%
%ADD93C,0.05118*%
%ADD94C,0.13398*%
%ADD95R,0.06706X0.06706*%
%ADD96C,0.06706*%
%ADD97R,0.06706X0.06706*%
%ADD98R,0.10642X0.10642*%
%ADD99C,0.10642*%
%ADD100C,0.06800*%
%ADD101R,0.06800X0.06800*%
%ADD102R,0.06800X0.06800*%
%ADD103C,0.03162*%
D62*
X207874Y75394D02*
D03*
X237106D02*
D03*
X251772Y54331D02*
D03*
X235827Y189370D02*
D03*
X210039Y224213D02*
D03*
X171555Y214173D02*
D03*
X41437Y263386D02*
D03*
X47736Y243209D02*
D03*
X167717Y258169D02*
D03*
D63*
X48031Y78937D02*
D03*
Y43898D02*
D03*
Y126575D02*
D03*
Y91535D02*
D03*
D64*
X324016Y88287D02*
D03*
X335039D02*
D03*
X55512Y276575D02*
D03*
X44488D02*
D03*
X55512Y213779D02*
D03*
X44488D02*
D03*
X298031Y222047D02*
D03*
X309055D02*
D03*
D65*
X100787Y266732D02*
D03*
X107677D02*
D03*
X100787Y256968D02*
D03*
X107677D02*
D03*
X100787Y247205D02*
D03*
X107677D02*
D03*
Y237441D02*
D03*
X100787D02*
D03*
Y227677D02*
D03*
X107677D02*
D03*
X100787Y217913D02*
D03*
X107677D02*
D03*
X118453Y276433D02*
D03*
X125343D02*
D03*
Y266732D02*
D03*
X118453D02*
D03*
Y256968D02*
D03*
X125343D02*
D03*
Y247205D02*
D03*
X118453D02*
D03*
Y237441D02*
D03*
X125343D02*
D03*
Y227677D02*
D03*
X118453D02*
D03*
Y217913D02*
D03*
X125343D02*
D03*
X47638Y264370D02*
D03*
X54527D02*
D03*
X47638Y254134D02*
D03*
X54527D02*
D03*
X47638Y236614D02*
D03*
X54528D02*
D03*
X47638Y226279D02*
D03*
X54527D02*
D03*
X177559Y286319D02*
D03*
X184449D02*
D03*
X195276D02*
D03*
X202165D02*
D03*
X177559Y276433D02*
D03*
X184449D02*
D03*
Y266682D02*
D03*
X177559D02*
D03*
X184449Y256931D02*
D03*
X177559D02*
D03*
X202165Y276433D02*
D03*
X195276D02*
D03*
Y266682D02*
D03*
X202165D02*
D03*
Y256931D02*
D03*
X195276D02*
D03*
X213976Y286319D02*
D03*
X220866D02*
D03*
X213976Y276181D02*
D03*
X220866D02*
D03*
X202165Y247180D02*
D03*
X195276D02*
D03*
X202165Y237428D02*
D03*
X195276D02*
D03*
X202165Y227677D02*
D03*
X195276D02*
D03*
X184449Y247180D02*
D03*
X177559D02*
D03*
X184449Y237428D02*
D03*
X177559D02*
D03*
X184449Y227677D02*
D03*
X177559D02*
D03*
X251673Y215748D02*
D03*
X258563D02*
D03*
X274311D02*
D03*
X267421D02*
D03*
X268012Y245669D02*
D03*
X261122D02*
D03*
X297342Y246457D02*
D03*
X304232D02*
D03*
X324311Y279921D02*
D03*
X317421D02*
D03*
X340059Y246063D02*
D03*
X333169D02*
D03*
X323917Y235827D02*
D03*
X317028D02*
D03*
X340059D02*
D03*
X333169D02*
D03*
X262697Y282677D02*
D03*
X269587D02*
D03*
X204429Y153543D02*
D03*
X211319D02*
D03*
X220177D02*
D03*
X227067D02*
D03*
X211319Y144095D02*
D03*
X204429D02*
D03*
X227067D02*
D03*
X220177D02*
D03*
X221457Y196555D02*
D03*
X214567D02*
D03*
X301476Y136221D02*
D03*
X294587D02*
D03*
X276870Y126772D02*
D03*
X269980D02*
D03*
X276870Y136221D02*
D03*
X269980D02*
D03*
X301476Y112894D02*
D03*
X294587D02*
D03*
X63090Y42913D02*
D03*
X69980D02*
D03*
Y53018D02*
D03*
X63090D02*
D03*
X69980Y63123D02*
D03*
X63090D02*
D03*
X69980Y105512D02*
D03*
X63090D02*
D03*
X69980Y115354D02*
D03*
X63090D02*
D03*
Y125197D02*
D03*
X69980D02*
D03*
X108366Y73327D02*
D03*
X115256D02*
D03*
X79429Y42913D02*
D03*
X86319D02*
D03*
X95768D02*
D03*
X102657D02*
D03*
X89468Y174803D02*
D03*
X96358D02*
D03*
X79429D02*
D03*
X72539D02*
D03*
X62500D02*
D03*
X55610D02*
D03*
X121949Y170472D02*
D03*
X115059D02*
D03*
X121949Y180315D02*
D03*
X115059D02*
D03*
D66*
X69193Y248858D02*
D03*
Y268858D02*
D03*
X85728Y268858D02*
D03*
Y248858D02*
D03*
X69193Y218150D02*
D03*
Y238150D02*
D03*
X85335D02*
D03*
Y218150D02*
D03*
X283071Y225433D02*
D03*
Y245433D02*
D03*
Y258504D02*
D03*
Y278504D02*
D03*
X84252Y125354D02*
D03*
Y105354D02*
D03*
D67*
X138878Y280610D02*
D03*
Y287500D02*
D03*
X163854Y225594D02*
D03*
Y218705D02*
D03*
X204921Y46063D02*
D03*
Y39173D02*
D03*
X216634Y46063D02*
D03*
Y39173D02*
D03*
X228346Y46063D02*
D03*
Y39173D02*
D03*
X240059Y46063D02*
D03*
Y39173D02*
D03*
X251772Y46063D02*
D03*
Y39173D02*
D03*
X263484D02*
D03*
Y46063D02*
D03*
X250000Y246752D02*
D03*
Y239862D02*
D03*
Y231004D02*
D03*
Y224114D02*
D03*
X295965Y273327D02*
D03*
Y280217D02*
D03*
X305512Y273327D02*
D03*
Y280217D02*
D03*
X186614Y179232D02*
D03*
Y186122D02*
D03*
X196063Y179232D02*
D03*
Y186122D02*
D03*
X205512Y179232D02*
D03*
Y186122D02*
D03*
X292913Y72736D02*
D03*
Y65847D02*
D03*
X302658Y72736D02*
D03*
Y65847D02*
D03*
X184153Y85532D02*
D03*
Y92421D02*
D03*
X193701Y85532D02*
D03*
Y92421D02*
D03*
Y103642D02*
D03*
Y110531D02*
D03*
X205217Y103642D02*
D03*
Y110531D02*
D03*
X259941Y126476D02*
D03*
Y133366D02*
D03*
X124705Y73425D02*
D03*
Y80315D02*
D03*
X128740Y129429D02*
D03*
Y122539D02*
D03*
X118635Y129429D02*
D03*
Y122539D02*
D03*
X108530Y129429D02*
D03*
Y122539D02*
D03*
X98425Y129429D02*
D03*
Y122539D02*
D03*
X152362Y102854D02*
D03*
Y109744D02*
D03*
X98425Y89075D02*
D03*
Y95965D02*
D03*
X43012Y176673D02*
D03*
Y169783D02*
D03*
X42913Y153740D02*
D03*
Y160630D02*
D03*
X98425Y162894D02*
D03*
Y156004D02*
D03*
Y146161D02*
D03*
Y139272D02*
D03*
Y112697D02*
D03*
Y105807D02*
D03*
X155512Y152264D02*
D03*
Y145374D02*
D03*
D68*
X164862Y284449D02*
D03*
X138787Y221925D02*
D03*
D69*
X150295Y289173D02*
D03*
Y279724D02*
D03*
X153354Y217201D02*
D03*
Y226650D02*
D03*
D70*
X40709Y140059D02*
D03*
X20709D02*
D03*
X40709Y190551D02*
D03*
X20709D02*
D03*
X320315Y222047D02*
D03*
X340315D02*
D03*
X64016Y92126D02*
D03*
X84016D02*
D03*
D71*
X194193Y217913D02*
D03*
Y210433D02*
D03*
X203248Y214173D02*
D03*
X185531Y210433D02*
D03*
Y217913D02*
D03*
X176476Y214173D02*
D03*
X324606Y262795D02*
D03*
Y270276D02*
D03*
X315551Y266535D02*
D03*
X324606Y246260D02*
D03*
Y253740D02*
D03*
X315551Y250000D02*
D03*
X202658Y92716D02*
D03*
Y85236D02*
D03*
X211713Y88976D02*
D03*
X301870Y121161D02*
D03*
Y128642D02*
D03*
X292815Y124902D02*
D03*
D72*
X139126Y268150D02*
D03*
D73*
Y263150D02*
D03*
Y258150D02*
D03*
Y253150D02*
D03*
Y248150D02*
D03*
Y243150D02*
D03*
Y238150D02*
D03*
X160583Y268150D02*
D03*
Y263150D02*
D03*
Y258150D02*
D03*
Y253150D02*
D03*
Y248150D02*
D03*
Y243150D02*
D03*
Y238150D02*
D03*
D74*
X245669Y283465D02*
D03*
Y259842D02*
D03*
D75*
X304528Y264370D02*
D03*
X297047D02*
D03*
X300787Y255315D02*
D03*
X269587Y144685D02*
D03*
X277067D02*
D03*
X273327Y153740D02*
D03*
X62795Y72244D02*
D03*
X70276D02*
D03*
X66535Y81299D02*
D03*
D76*
X307776Y235827D02*
D03*
X293799D02*
D03*
X290453Y102756D02*
D03*
X304429D02*
D03*
X305020Y145866D02*
D03*
X291043D02*
D03*
D77*
X336614Y279035D02*
D03*
Y265059D02*
D03*
X259941Y140551D02*
D03*
Y154528D02*
D03*
D78*
X271161Y235236D02*
D03*
Y231496D02*
D03*
Y227756D02*
D03*
X260335D02*
D03*
Y231496D02*
D03*
D79*
Y235236D02*
D03*
D80*
X266535Y272244D02*
D03*
Y257677D02*
D03*
D81*
X224114Y164961D02*
D03*
X207185D02*
D03*
X294390Y88189D02*
D03*
X311319D02*
D03*
D82*
X225689Y128543D02*
D03*
X215846D02*
D03*
X206004D02*
D03*
D83*
X221457Y187992D02*
D03*
X217717D02*
D03*
X213976D02*
D03*
Y177362D02*
D03*
X221457D02*
D03*
X312697Y63976D02*
D03*
X316437D02*
D03*
X320177D02*
D03*
Y74606D02*
D03*
X312697D02*
D03*
D84*
X272146Y81595D02*
D03*
Y112303D02*
D03*
X237106Y81595D02*
D03*
Y112303D02*
D03*
D85*
X315846Y141437D02*
D03*
Y106398D02*
D03*
X337500D02*
D03*
Y141437D02*
D03*
D86*
X315453Y130217D02*
D03*
Y127067D02*
D03*
Y123917D02*
D03*
Y120768D02*
D03*
Y117619D02*
D03*
D87*
X98976Y74410D02*
D03*
X124961Y111417D02*
D03*
D88*
X83976Y74410D02*
D03*
X93976D02*
D03*
X88976D02*
D03*
X93976Y53150D02*
D03*
X83976D02*
D03*
X98976D02*
D03*
X88976D02*
D03*
X114961Y90158D02*
D03*
X124961D02*
D03*
X109961D02*
D03*
X119961D02*
D03*
X114961Y111417D02*
D03*
X119961D02*
D03*
X109961D02*
D03*
D89*
X52973Y141634D02*
D03*
X57973D02*
D03*
X62972D02*
D03*
X67972D02*
D03*
X72973D02*
D03*
X77973D02*
D03*
X82973D02*
D03*
X87972D02*
D03*
X52973Y163091D02*
D03*
X57973D02*
D03*
X62972D02*
D03*
X67972D02*
D03*
X72973D02*
D03*
X77973D02*
D03*
X82973D02*
D03*
D90*
X87972D02*
D03*
D91*
X189862Y116732D02*
D03*
Y118701D02*
D03*
Y120669D02*
D03*
Y122638D02*
D03*
Y124606D02*
D03*
Y126575D02*
D03*
Y128543D02*
D03*
Y130512D02*
D03*
Y132480D02*
D03*
Y134449D02*
D03*
Y136417D02*
D03*
Y138386D02*
D03*
X158169D02*
D03*
Y136417D02*
D03*
Y134449D02*
D03*
Y132480D02*
D03*
Y130512D02*
D03*
Y128543D02*
D03*
Y126575D02*
D03*
Y124606D02*
D03*
Y122638D02*
D03*
Y120669D02*
D03*
Y118701D02*
D03*
Y116732D02*
D03*
D92*
X184843Y143405D02*
D03*
X182874D02*
D03*
X180905D02*
D03*
X178937D02*
D03*
X176969D02*
D03*
X175000D02*
D03*
X173031D02*
D03*
X171063D02*
D03*
X169095D02*
D03*
X167126D02*
D03*
X165157D02*
D03*
X163189D02*
D03*
Y111713D02*
D03*
X165157D02*
D03*
X167126D02*
D03*
X169095D02*
D03*
X171063D02*
D03*
X173031D02*
D03*
X175000D02*
D03*
X176969D02*
D03*
X178937D02*
D03*
X180905D02*
D03*
X182874D02*
D03*
X184843D02*
D03*
D93*
X328740Y47244D02*
D03*
X41339Y299213D02*
D03*
D94*
X25591D02*
D03*
X328740D02*
D03*
Y31496D02*
D03*
X25591Y31890D02*
D03*
D95*
X22047Y211417D02*
D03*
Y255512D02*
D03*
Y57874D02*
D03*
Y98425D02*
D03*
Y157480D02*
D03*
D96*
Y219291D02*
D03*
Y227165D02*
D03*
Y271260D02*
D03*
Y263386D02*
D03*
X287106Y40650D02*
D03*
X22047Y65748D02*
D03*
Y73622D02*
D03*
Y106299D02*
D03*
Y114173D02*
D03*
Y165354D02*
D03*
Y173228D02*
D03*
D97*
X294980Y40650D02*
D03*
D98*
X299528Y198819D02*
D03*
X329528D02*
D03*
D99*
X299528Y178819D02*
D03*
X329528D02*
D03*
D100*
X138976Y100551D02*
D03*
Y90551D02*
D03*
Y110551D02*
D03*
Y160394D02*
D03*
Y170394D02*
D03*
Y150394D02*
D03*
X115039Y40945D02*
D03*
X125039D02*
D03*
X135039D02*
D03*
X145039D02*
D03*
X165039D02*
D03*
X175039D02*
D03*
X155039D02*
D03*
X115039Y198425D02*
D03*
X125039D02*
D03*
X135039D02*
D03*
X145039D02*
D03*
X165039D02*
D03*
X175039D02*
D03*
X155039D02*
D03*
X269685Y175197D02*
D03*
D101*
X138976Y80551D02*
D03*
Y180394D02*
D03*
D102*
X185039Y40945D02*
D03*
Y198425D02*
D03*
X269685Y194882D02*
D03*
D103*
X325689Y115256D02*
D03*
Y132579D02*
D03*
M02*
