G04 Layer_Physical_Order=1*
G04 Layer_Color=12566272*
%FSLAX25Y25*%
%MOIN*%
G70*
G01*
G75*
%ADD10C,0.03150*%
%ADD11R,0.04331X0.05905*%
%ADD12R,0.04724X0.06496*%
%ADD13R,0.04528X0.05315*%
%ADD14R,0.07874X0.07874*%
%ADD15R,0.05315X0.04528*%
%ADD16R,0.05905X0.06299*%
%ADD17R,0.04724X0.04724*%
%ADD18R,0.07874X0.07874*%
%ADD19R,0.03543X0.02362*%
%ADD20R,0.06299X0.02362*%
%ADD21O,0.06299X0.02362*%
%ADD22R,0.11811X0.07874*%
%ADD23R,0.02362X0.03543*%
%ADD24R,0.03347X0.02953*%
%ADD25R,0.02953X0.03347*%
%ADD26O,0.04134X0.02362*%
%ADD27R,0.04134X0.02362*%
%ADD28R,0.11024X0.07087*%
%ADD29R,0.06693X0.07874*%
%ADD30R,0.05512X0.13386*%
%ADD31R,0.01968X0.03937*%
%ADD32R,0.05512X0.05905*%
%ADD33R,0.09842X0.07874*%
%ADD34R,0.09055X0.01968*%
%ADD35R,0.02362X0.07874*%
%ADD36O,0.02362X0.07874*%
%ADD37O,0.02362X0.06299*%
%ADD38R,0.02362X0.06299*%
%ADD39O,0.06102X0.00984*%
%ADD40O,0.00984X0.06102*%
%ADD41C,0.01968*%
%ADD42C,0.01968*%
%ADD43C,0.01575*%
%ADD44C,0.01181*%
%ADD45C,0.01000*%
%ADD46C,0.02362*%
%ADD47C,0.03150*%
%ADD48C,0.00787*%
%ADD49C,0.00984*%
%ADD50C,0.12598*%
%ADD51R,0.05905X0.05905*%
%ADD52C,0.05905*%
%ADD53R,0.05905X0.05905*%
%ADD54R,0.09842X0.09842*%
%ADD55C,0.09842*%
%ADD56C,0.06000*%
%ADD57R,0.06000X0.06000*%
%ADD58R,0.06000X0.06000*%
%ADD59C,0.02362*%
G36*
X291042Y231005D02*
X291048Y230990D01*
X291553Y230332D01*
X292520Y229366D01*
Y217323D01*
X292520Y215748D01*
X290551Y213779D01*
Y193307D01*
X294882Y188976D01*
X332087Y188976D01*
X337402Y183661D01*
X337402Y179134D01*
X337402Y173003D01*
X333465Y168504D01*
X264961D01*
X260236Y173228D01*
Y197244D01*
X244488Y212992D01*
Y232677D01*
X245737D01*
Y228740D01*
X245859Y228126D01*
X246207Y227605D01*
X246728Y227257D01*
X247342Y227134D01*
X250824D01*
X252168Y225790D01*
X252744Y225349D01*
X253414Y225071D01*
X254134Y224976D01*
X261221D01*
X261940Y225071D01*
X262610Y225349D01*
X262773Y225474D01*
X263561Y225085D01*
Y221654D01*
X263649Y220986D01*
X263906Y220363D01*
X263955Y220020D01*
X263373Y219322D01*
X262108D01*
X261962Y219541D01*
X261441Y219889D01*
X260827Y220011D01*
X256299D01*
X255685Y219889D01*
X255164Y219541D01*
X254816Y219020D01*
X254694Y218406D01*
Y213091D01*
X254816Y212476D01*
X255164Y211955D01*
X255685Y211607D01*
X256299Y211485D01*
X260827D01*
X261441Y211607D01*
X261962Y211955D01*
X262108Y212174D01*
X263847D01*
Y206594D01*
X263969Y205669D01*
X264326Y204807D01*
X264894Y204067D01*
X266111Y202850D01*
Y199373D01*
X266071Y199365D01*
X265550Y199017D01*
X265202Y198496D01*
X265079Y197882D01*
Y191882D01*
X265202Y191268D01*
X265550Y190746D01*
X266071Y190399D01*
X266685Y190276D01*
X272685D01*
X273300Y190399D01*
X273820Y190746D01*
X274168Y191268D01*
X274291Y191882D01*
Y197882D01*
X274168Y198496D01*
X273820Y199017D01*
X273300Y199365D01*
X273259Y199373D01*
Y204331D01*
X273137Y205256D01*
X272780Y206118D01*
X272212Y206858D01*
X272212Y206858D01*
X270995Y208075D01*
Y211025D01*
X271782Y211538D01*
X272047Y211485D01*
X276575D01*
X277189Y211607D01*
X277710Y211955D01*
X278058Y212476D01*
X278181Y213091D01*
Y218406D01*
X278058Y219020D01*
X277710Y219541D01*
X277189Y219889D01*
X277091Y219909D01*
Y220177D01*
X276996Y220897D01*
X276718Y221567D01*
X276276Y222143D01*
X273941Y224478D01*
Y225735D01*
X274013Y225790D01*
X274454Y226366D01*
X274732Y227036D01*
X274827Y227756D01*
X274778Y228128D01*
X275028Y228598D01*
X275210Y228813D01*
X275392Y228941D01*
X275865Y229003D01*
X276487Y229261D01*
X277022Y229671D01*
X277432Y230205D01*
X277690Y230828D01*
X277778Y231496D01*
X277729Y231868D01*
X278247Y232655D01*
X278937D01*
X279105Y232677D01*
X289370D01*
X291042Y231005D01*
D02*
G37*
G36*
X272441Y261713D02*
Y254528D01*
X275000Y251969D01*
X287008D01*
X288583Y250394D01*
X288583Y243799D01*
X279468Y234684D01*
X279105D01*
X278975Y234658D01*
X278947Y234660D01*
X278937Y234662D01*
X278917D01*
X278843Y234667D01*
X278805Y234662D01*
X278247D01*
X278045Y234622D01*
X277840Y234621D01*
X277665Y234546D01*
X277479Y234509D01*
X277308Y234395D01*
X277119Y234315D01*
X276985Y234180D01*
X276827Y234074D01*
X276749Y233957D01*
X275943D01*
X275865Y233989D01*
X275197Y234077D01*
X273017D01*
X272767Y234181D01*
X272047Y234276D01*
X270276D01*
X269556Y234181D01*
X269305Y234077D01*
X268974D01*
X265945Y237106D01*
Y248819D01*
X266142Y249016D01*
X264764Y250394D01*
Y250787D01*
X262500D01*
X260433Y252854D01*
Y261138D01*
X261894Y262598D01*
X271555D01*
X272441Y261713D01*
D02*
G37*
G36*
X288976Y275590D02*
X281890Y268504D01*
X264961Y268504D01*
X257087Y260630D01*
X257087Y253150D01*
X255118Y251181D01*
X234646D01*
X231496Y254331D01*
Y265354D01*
X236614Y271654D01*
X259134Y271654D01*
X265109Y278444D01*
X265575Y278536D01*
X266096Y278884D01*
X266444Y279405D01*
X266566Y280020D01*
Y280099D01*
X271260Y285433D01*
X288976D01*
Y275590D01*
D02*
G37*
D10*
X207874Y75394D02*
D03*
X237106D02*
D03*
X251772Y54331D02*
D03*
X235827Y189370D02*
D03*
X210039Y224213D02*
D03*
X171555Y214173D02*
D03*
X41437Y263386D02*
D03*
X47736Y243209D02*
D03*
X167717Y258169D02*
D03*
D11*
X48031Y78937D02*
D03*
Y43898D02*
D03*
Y126575D02*
D03*
Y91535D02*
D03*
D12*
X324016Y88287D02*
D03*
X335039D02*
D03*
X55512Y276575D02*
D03*
X44488D02*
D03*
X55512Y213779D02*
D03*
X44488D02*
D03*
X298031Y222047D02*
D03*
X309055D02*
D03*
D13*
X100787Y266732D02*
D03*
X107677D02*
D03*
X100787Y256968D02*
D03*
X107677D02*
D03*
X100787Y247205D02*
D03*
X107677D02*
D03*
Y237441D02*
D03*
X100787D02*
D03*
Y227677D02*
D03*
X107677D02*
D03*
X100787Y217913D02*
D03*
X107677D02*
D03*
X118453Y276433D02*
D03*
X125343D02*
D03*
Y266732D02*
D03*
X118453D02*
D03*
Y256968D02*
D03*
X125343D02*
D03*
Y247205D02*
D03*
X118453D02*
D03*
Y237441D02*
D03*
X125343D02*
D03*
Y227677D02*
D03*
X118453D02*
D03*
Y217913D02*
D03*
X125343D02*
D03*
X47638Y264370D02*
D03*
X54527D02*
D03*
X47638Y254134D02*
D03*
X54527D02*
D03*
X47638Y236614D02*
D03*
X54528D02*
D03*
X47638Y226279D02*
D03*
X54527D02*
D03*
X177559Y286319D02*
D03*
X184449D02*
D03*
X195276D02*
D03*
X202165D02*
D03*
X177559Y276433D02*
D03*
X184449D02*
D03*
Y266682D02*
D03*
X177559D02*
D03*
X184449Y256931D02*
D03*
X177559D02*
D03*
X202165Y276433D02*
D03*
X195276D02*
D03*
Y266682D02*
D03*
X202165D02*
D03*
Y256931D02*
D03*
X195276D02*
D03*
X213976Y286319D02*
D03*
X220866D02*
D03*
X213976Y276181D02*
D03*
X220866D02*
D03*
X202165Y247180D02*
D03*
X195276D02*
D03*
X202165Y237428D02*
D03*
X195276D02*
D03*
X202165Y227677D02*
D03*
X195276D02*
D03*
X184449Y247180D02*
D03*
X177559D02*
D03*
X184449Y237428D02*
D03*
X177559D02*
D03*
X184449Y227677D02*
D03*
X177559D02*
D03*
X251673Y215748D02*
D03*
X258563D02*
D03*
X274311D02*
D03*
X267421D02*
D03*
X268012Y245669D02*
D03*
X261122D02*
D03*
X297342Y246457D02*
D03*
X304232D02*
D03*
X324311Y279921D02*
D03*
X317421D02*
D03*
X340059Y246063D02*
D03*
X333169D02*
D03*
X323917Y235827D02*
D03*
X317028D02*
D03*
X340059D02*
D03*
X333169D02*
D03*
X262697Y282677D02*
D03*
X269587D02*
D03*
X204429Y153543D02*
D03*
X211319D02*
D03*
X220177D02*
D03*
X227067D02*
D03*
X211319Y144095D02*
D03*
X204429D02*
D03*
X227067D02*
D03*
X220177D02*
D03*
X221457Y196555D02*
D03*
X214567D02*
D03*
X301476Y136221D02*
D03*
X294587D02*
D03*
X276870Y126772D02*
D03*
X269980D02*
D03*
X276870Y136221D02*
D03*
X269980D02*
D03*
X301476Y112894D02*
D03*
X294587D02*
D03*
X63090Y42913D02*
D03*
X69980D02*
D03*
Y53018D02*
D03*
X63090D02*
D03*
X69980Y63123D02*
D03*
X63090D02*
D03*
X69980Y105512D02*
D03*
X63090D02*
D03*
X69980Y115354D02*
D03*
X63090D02*
D03*
Y125197D02*
D03*
X69980D02*
D03*
X108366Y73327D02*
D03*
X115256D02*
D03*
X79429Y42913D02*
D03*
X86319D02*
D03*
X95768D02*
D03*
X102657D02*
D03*
X89468Y174803D02*
D03*
X96358D02*
D03*
X79429D02*
D03*
X72539D02*
D03*
X62500D02*
D03*
X55610D02*
D03*
X121949Y170472D02*
D03*
X115059D02*
D03*
X121949Y180315D02*
D03*
X115059D02*
D03*
D14*
X69193Y248858D02*
D03*
Y268858D02*
D03*
X85728Y268858D02*
D03*
Y248858D02*
D03*
X69193Y218150D02*
D03*
Y238150D02*
D03*
X85335D02*
D03*
Y218150D02*
D03*
X283071Y225433D02*
D03*
Y245433D02*
D03*
Y258504D02*
D03*
Y278504D02*
D03*
X84252Y125354D02*
D03*
Y105354D02*
D03*
D15*
X138878Y280610D02*
D03*
Y287500D02*
D03*
X163854Y225594D02*
D03*
Y218705D02*
D03*
X204921Y46063D02*
D03*
Y39173D02*
D03*
X216634Y46063D02*
D03*
Y39173D02*
D03*
X228346Y46063D02*
D03*
Y39173D02*
D03*
X240059Y46063D02*
D03*
Y39173D02*
D03*
X251772Y46063D02*
D03*
Y39173D02*
D03*
X263484D02*
D03*
Y46063D02*
D03*
X250000Y246752D02*
D03*
Y239862D02*
D03*
Y231004D02*
D03*
Y224114D02*
D03*
X295965Y273327D02*
D03*
Y280217D02*
D03*
X305512Y273327D02*
D03*
Y280217D02*
D03*
X186614Y179232D02*
D03*
Y186122D02*
D03*
X196063Y179232D02*
D03*
Y186122D02*
D03*
X205512Y179232D02*
D03*
Y186122D02*
D03*
X292913Y72736D02*
D03*
Y65847D02*
D03*
X302658Y72736D02*
D03*
Y65847D02*
D03*
X184153Y85532D02*
D03*
Y92421D02*
D03*
X193701Y85532D02*
D03*
Y92421D02*
D03*
Y103642D02*
D03*
Y110531D02*
D03*
X205217Y103642D02*
D03*
Y110531D02*
D03*
X259941Y126476D02*
D03*
Y133366D02*
D03*
X124705Y73425D02*
D03*
Y80315D02*
D03*
X128740Y129429D02*
D03*
Y122539D02*
D03*
X118635Y129429D02*
D03*
Y122539D02*
D03*
X108530Y129429D02*
D03*
Y122539D02*
D03*
X98425Y129429D02*
D03*
Y122539D02*
D03*
X152362Y102854D02*
D03*
Y109744D02*
D03*
X98425Y89075D02*
D03*
Y95965D02*
D03*
X43012Y176673D02*
D03*
Y169783D02*
D03*
X42913Y153740D02*
D03*
Y160630D02*
D03*
X98425Y162894D02*
D03*
Y156004D02*
D03*
Y146161D02*
D03*
Y139272D02*
D03*
Y112697D02*
D03*
Y105807D02*
D03*
X155512Y152264D02*
D03*
Y145374D02*
D03*
D16*
X164862Y284449D02*
D03*
X138787Y221925D02*
D03*
D17*
X150295Y289173D02*
D03*
Y279724D02*
D03*
X153354Y217201D02*
D03*
Y226650D02*
D03*
D18*
X40709Y140059D02*
D03*
X20709D02*
D03*
X40709Y190551D02*
D03*
X20709D02*
D03*
X320315Y222047D02*
D03*
X340315D02*
D03*
X64016Y92126D02*
D03*
X84016D02*
D03*
D19*
X194193Y217913D02*
D03*
Y210433D02*
D03*
X203248Y214173D02*
D03*
X185531Y210433D02*
D03*
Y217913D02*
D03*
X176476Y214173D02*
D03*
X324606Y262795D02*
D03*
Y270276D02*
D03*
X315551Y266535D02*
D03*
X324606Y246260D02*
D03*
Y253740D02*
D03*
X315551Y250000D02*
D03*
X202658Y92716D02*
D03*
Y85236D02*
D03*
X211713Y88976D02*
D03*
X301870Y121161D02*
D03*
Y128642D02*
D03*
X292815Y124902D02*
D03*
D20*
X139126Y268150D02*
D03*
D21*
Y263150D02*
D03*
Y258150D02*
D03*
Y253150D02*
D03*
Y248150D02*
D03*
Y243150D02*
D03*
Y238150D02*
D03*
X160583Y268150D02*
D03*
Y263150D02*
D03*
Y258150D02*
D03*
Y253150D02*
D03*
Y248150D02*
D03*
Y243150D02*
D03*
Y238150D02*
D03*
D22*
X245669Y283465D02*
D03*
Y259842D02*
D03*
D23*
X304528Y264370D02*
D03*
X297047D02*
D03*
X300787Y255315D02*
D03*
X269587Y144685D02*
D03*
X277067D02*
D03*
X273327Y153740D02*
D03*
X62795Y72244D02*
D03*
X70276D02*
D03*
X66535Y81299D02*
D03*
D24*
X307776Y235827D02*
D03*
X293799D02*
D03*
X290453Y102756D02*
D03*
X304429D02*
D03*
X305020Y145866D02*
D03*
X291043D02*
D03*
D25*
X336614Y279035D02*
D03*
Y265059D02*
D03*
X259941Y140551D02*
D03*
Y154528D02*
D03*
D26*
X271161Y235236D02*
D03*
Y231496D02*
D03*
Y227756D02*
D03*
X260335D02*
D03*
Y231496D02*
D03*
D27*
Y235236D02*
D03*
D28*
X266535Y272244D02*
D03*
Y257677D02*
D03*
D29*
X224114Y164961D02*
D03*
X207185D02*
D03*
X294390Y88189D02*
D03*
X311319D02*
D03*
D30*
X225689Y128543D02*
D03*
X215846D02*
D03*
X206004D02*
D03*
D31*
X221457Y187992D02*
D03*
X217717D02*
D03*
X213976D02*
D03*
Y177362D02*
D03*
X221457D02*
D03*
X312697Y63976D02*
D03*
X316437D02*
D03*
X320177D02*
D03*
Y74606D02*
D03*
X312697D02*
D03*
D32*
X272146Y81595D02*
D03*
Y112303D02*
D03*
X237106Y81595D02*
D03*
Y112303D02*
D03*
D33*
X315846Y141437D02*
D03*
Y106398D02*
D03*
X337500D02*
D03*
Y141437D02*
D03*
D34*
X315453Y130217D02*
D03*
Y127067D02*
D03*
Y123917D02*
D03*
Y120768D02*
D03*
Y117619D02*
D03*
D35*
X98976Y74410D02*
D03*
X124961Y111417D02*
D03*
D36*
X83976Y74410D02*
D03*
X93976D02*
D03*
X88976D02*
D03*
X93976Y53150D02*
D03*
X83976D02*
D03*
X98976D02*
D03*
X88976D02*
D03*
X114961Y90158D02*
D03*
X124961D02*
D03*
X109961D02*
D03*
X119961D02*
D03*
X114961Y111417D02*
D03*
X119961D02*
D03*
X109961D02*
D03*
D37*
X52973Y141634D02*
D03*
X57973D02*
D03*
X62972D02*
D03*
X67972D02*
D03*
X72973D02*
D03*
X77973D02*
D03*
X82973D02*
D03*
X87972D02*
D03*
X52973Y163091D02*
D03*
X57973D02*
D03*
X62972D02*
D03*
X67972D02*
D03*
X72973D02*
D03*
X77973D02*
D03*
X82973D02*
D03*
D38*
X87972D02*
D03*
D39*
X189862Y116732D02*
D03*
Y118701D02*
D03*
Y120669D02*
D03*
Y122638D02*
D03*
Y124606D02*
D03*
Y126575D02*
D03*
Y128543D02*
D03*
Y130512D02*
D03*
Y132480D02*
D03*
Y134449D02*
D03*
Y136417D02*
D03*
Y138386D02*
D03*
X158169D02*
D03*
Y136417D02*
D03*
Y134449D02*
D03*
Y132480D02*
D03*
Y130512D02*
D03*
Y128543D02*
D03*
Y126575D02*
D03*
Y124606D02*
D03*
Y122638D02*
D03*
Y120669D02*
D03*
Y118701D02*
D03*
Y116732D02*
D03*
D40*
X184843Y143405D02*
D03*
X182874D02*
D03*
X180905D02*
D03*
X178937D02*
D03*
X176969D02*
D03*
X175000D02*
D03*
X173031D02*
D03*
X171063D02*
D03*
X169095D02*
D03*
X167126D02*
D03*
X165157D02*
D03*
X163189D02*
D03*
Y111713D02*
D03*
X165157D02*
D03*
X167126D02*
D03*
X169095D02*
D03*
X171063D02*
D03*
X173031D02*
D03*
X175000D02*
D03*
X176969D02*
D03*
X178937D02*
D03*
X180905D02*
D03*
X182874D02*
D03*
X184843D02*
D03*
D41*
X328740Y47244D02*
D03*
X41339Y299213D02*
D03*
X235039Y259842D02*
D03*
X288976Y258661D02*
D03*
X277165D02*
D03*
X290945Y225433D02*
D03*
X277008D02*
D03*
X301181Y145669D02*
D03*
X294390Y95177D02*
D03*
X221457Y192028D02*
D03*
X214567Y165157D02*
D03*
X118701Y118110D02*
D03*
Y133071D02*
D03*
X66535Y84744D02*
D03*
X106299Y113091D02*
D03*
X259941Y122736D02*
D03*
X281102Y126870D02*
D03*
X277165Y140945D02*
D03*
X260039Y137303D02*
D03*
X198721Y217913D02*
D03*
X227067Y149016D02*
D03*
X206398Y247244D02*
D03*
X92028Y266933D02*
D03*
X96752Y227658D02*
D03*
X54429Y269685D02*
D03*
X54528Y258661D02*
D03*
X62835Y218150D02*
D03*
X75157D02*
D03*
X114567Y227658D02*
D03*
X154232Y253150D02*
D03*
X110236Y170374D02*
D03*
X272146Y76772D02*
D03*
X39665Y213779D02*
D03*
X49409Y276083D02*
D03*
X119587Y73622D02*
D03*
X231988Y81595D02*
D03*
X211417Y149016D02*
D03*
X195669Y118012D02*
D03*
X198917Y115256D02*
D03*
X197244Y199508D02*
D03*
X205512Y191240D02*
D03*
X316535Y59744D02*
D03*
X251772Y50197D02*
D03*
X215748Y139075D02*
D03*
X246654Y112697D02*
D03*
X320276Y78937D02*
D03*
X198819Y85236D02*
D03*
X150000Y117323D02*
D03*
X188386Y103543D02*
D03*
X198917Y110531D02*
D03*
X165551Y120965D02*
D03*
Y118012D02*
D03*
X184646Y130512D02*
D03*
X110236Y180315D02*
D03*
X165846Y253150D02*
D03*
X114567Y247047D02*
D03*
Y253150D02*
D03*
X90945Y42913D02*
D03*
X157874Y109843D02*
D03*
X106299Y90158D02*
D03*
X153445Y231299D02*
D03*
X190059Y266732D02*
D03*
Y276575D02*
D03*
X96752Y237598D02*
D03*
X75335Y247441D02*
D03*
X63287D02*
D03*
X79429Y237598D02*
D03*
X91240D02*
D03*
X129429Y247047D02*
D03*
X96752Y247441D02*
D03*
X99213Y80315D02*
D03*
X91339Y88976D02*
D03*
X83976Y86378D02*
D03*
X78583Y92126D02*
D03*
X83976Y111024D02*
D03*
X78583Y105354D02*
D03*
X83976Y80315D02*
D03*
X186909Y143405D02*
D03*
X189862D02*
D03*
X195669Y138189D02*
D03*
Y135039D02*
D03*
X297244Y124902D02*
D03*
X211319Y128543D02*
D03*
X220276D02*
D03*
X181988Y119783D02*
D03*
Y123031D02*
D03*
X110433Y137402D02*
D03*
X96752Y266933D02*
D03*
X114567D02*
D03*
X79528D02*
D03*
X181004Y210335D02*
D03*
X315551Y244488D02*
D03*
X275197Y231496D02*
D03*
X300886Y251575D02*
D03*
X286457Y170866D02*
D03*
X295748D02*
D03*
X305039D02*
D03*
X314331D02*
D03*
X323622D02*
D03*
Y187402D02*
D03*
X314331D02*
D03*
X305039D02*
D03*
X295748D02*
D03*
X288583Y193701D02*
D03*
Y203543D02*
D03*
Y213386D02*
D03*
X290945Y219685D02*
D03*
X277165Y170866D02*
D03*
X262598Y181693D02*
D03*
X255512Y204724D02*
D03*
X251181Y209055D02*
D03*
X246063Y216535D02*
D03*
X262598Y189370D02*
D03*
Y174016D02*
D03*
X260630Y200394D02*
D03*
X51968Y174803D02*
D03*
X96457Y178740D02*
D03*
X98425Y134153D02*
D03*
X173622Y286319D02*
D03*
X190059D02*
D03*
X225098D02*
D03*
X258268Y282677D02*
D03*
X253543Y283465D02*
D03*
X94095Y68898D02*
D03*
X221850Y39173D02*
D03*
X245472D02*
D03*
X287402Y102756D02*
D03*
X75197Y42913D02*
D03*
X324311Y274016D02*
D03*
X319291Y148031D02*
D03*
X315748D02*
D03*
X312205D02*
D03*
X235827Y194980D02*
D03*
X257087Y231496D02*
D03*
X52953Y148130D02*
D03*
X57973D02*
D03*
X258661Y222244D02*
D03*
D42*
X283071Y258504D02*
X283228Y258661D01*
X288976D01*
X282913D02*
X283071Y258504D01*
X277165Y258661D02*
X282913D01*
X241339Y241339D02*
Y252362D01*
X214567Y214567D02*
X241339Y241339D01*
X214567Y196555D02*
Y214567D01*
X245669Y256693D02*
Y259842D01*
X241339Y252362D02*
X245669Y256693D01*
X260433Y272244D02*
X266535D01*
X248031Y259842D02*
X260433Y272244D01*
X245669Y259842D02*
X248031D01*
X235039D02*
X244587D01*
X301181Y145669D02*
X304823D01*
X294390Y88189D02*
Y95177D01*
X295965Y280217D02*
X305512D01*
X295276D02*
X295965D01*
X305512D02*
X306398D01*
X315551Y271063D01*
Y266535D02*
Y271063D01*
X273228Y131890D02*
X277165Y135827D01*
X273228Y130610D02*
Y131890D01*
X269980Y127362D02*
X273228Y130610D01*
X269980Y126772D02*
Y127362D01*
X277165Y135827D02*
Y140945D01*
Y135039D02*
Y135827D01*
X277067Y141043D02*
X277165Y140945D01*
X277067Y141043D02*
Y144685D01*
X276870Y134744D02*
X277165Y135039D01*
X276870Y134744D02*
Y136221D01*
X253740Y150591D02*
Y157185D01*
X228937Y181988D02*
X253740Y157185D01*
Y150591D02*
X259941Y144390D01*
Y140551D02*
Y144390D01*
X273327Y153740D02*
X279626D01*
X287500Y145866D01*
X291043D01*
X272736Y149016D02*
X277067Y144685D01*
X265453Y149016D02*
X272736D01*
X259941Y154528D02*
X265453Y149016D01*
X266634Y136221D02*
X269980D01*
X263779Y133366D02*
X266634Y136221D01*
X259941Y133366D02*
X263779D01*
X269587Y136614D02*
X269980Y136221D01*
X269587Y136614D02*
Y144685D01*
X259941Y133366D02*
X260039Y133465D01*
Y137303D01*
X259941Y137402D02*
X260039Y137303D01*
X259941Y137402D02*
Y140551D01*
X244587Y259842D02*
X245669D01*
X228248Y276181D02*
X244587Y259842D01*
X220866Y276181D02*
X228248D01*
X90551Y228150D02*
X100787Y217913D01*
X61968Y238150D02*
X69193D01*
X60433Y236614D02*
X61968Y238150D01*
X54528Y236614D02*
X60433D01*
X78504Y211319D02*
X85335Y218150D01*
X63583Y211319D02*
X78504D01*
X61122Y213779D02*
X63583Y211319D01*
X55512Y213779D02*
X61122D01*
X55512D02*
Y220079D01*
X54527Y221063D02*
X55512Y220079D01*
X54527Y221063D02*
Y226279D01*
X326772Y101870D02*
Y109350D01*
X318503Y117619D02*
X326772Y109350D01*
X315453Y117619D02*
X318503D01*
X326772Y101870D02*
X335039Y93602D01*
Y88287D02*
Y93602D01*
X311319Y88189D02*
X311417Y88287D01*
X324016D01*
X311319Y88189D02*
Y93307D01*
X304429Y100197D02*
X311319Y93307D01*
X304429Y100197D02*
Y102756D01*
X44488Y276575D02*
X44980Y276083D01*
X49409D01*
X320177Y74606D02*
Y78839D01*
X150295Y272638D02*
Y279724D01*
X145807Y268150D02*
X150295Y272638D01*
X139126Y268150D02*
X145807D01*
X150295Y279724D02*
X160138D01*
X164272Y283858D02*
X170177D01*
X160138Y279724D02*
X164272Y283858D01*
X174311Y277362D02*
X177559D01*
X172441Y279232D02*
X174311Y277362D01*
X172441Y279232D02*
Y281594D01*
X170177Y283858D02*
X172441Y281594D01*
X91339Y88976D02*
X97933D01*
X98032Y89075D01*
X124961Y80847D02*
X125197Y80610D01*
X124961Y80847D02*
Y90158D01*
X88976Y69291D02*
Y74410D01*
X108366Y73622D02*
Y80512D01*
X108268Y80610D02*
X108366Y80512D01*
X108268Y80610D02*
X125197D01*
X98032Y89075D02*
X106496Y80610D01*
X108268D01*
X250000Y246752D02*
Y251575D01*
X249213Y252362D02*
X250000Y251575D01*
X249213Y252362D02*
Y256299D01*
X245669Y259842D02*
X249213Y256299D01*
X214567Y193405D02*
Y196555D01*
Y193405D02*
X217717Y190256D01*
Y187992D02*
Y190256D01*
Y184449D02*
Y187992D01*
Y184449D02*
X220177Y181988D01*
X228937D01*
X324803Y246063D02*
X333169D01*
X324606Y246260D02*
X324803Y246063D01*
X324016Y246260D02*
X324606D01*
X333661Y265059D02*
X336614D01*
X331398Y262795D02*
X333661Y265059D01*
X324606Y262795D02*
X331398D01*
X331791Y279035D02*
X336614D01*
X330906Y279921D02*
X331791Y279035D01*
X324311Y279921D02*
X330906D01*
X324311Y270571D02*
X324606Y270276D01*
X317421Y274016D02*
Y279921D01*
Y274016D02*
X319980Y271457D01*
X315453Y249902D02*
X315551Y250000D01*
X315453Y249902D02*
X315551Y249803D01*
Y244488D02*
Y249803D01*
Y244488D02*
X317028Y243012D01*
Y235827D02*
Y243012D01*
X281850Y278504D02*
X283071D01*
X275591Y272244D02*
X281850Y278504D01*
X266535Y272244D02*
X275591D01*
X269587Y279429D02*
Y282677D01*
X266535Y276378D02*
X269587Y279429D01*
X266535Y272244D02*
Y276378D01*
X305512Y269488D02*
Y273327D01*
X304528Y268504D02*
X305512Y269488D01*
X304528Y264370D02*
Y268504D01*
Y246752D02*
Y264370D01*
X304232Y246457D02*
X304528Y246752D01*
X304232Y242815D02*
Y246457D01*
Y242815D02*
X307776Y239272D01*
Y235827D02*
Y239272D01*
X333169Y246063D02*
Y254724D01*
X336614Y258169D01*
Y265059D01*
X319980Y266437D02*
Y271457D01*
Y266437D02*
X323622Y262795D01*
X324606D01*
X323917Y235827D02*
X333169D01*
X323917D02*
Y240059D01*
X320079Y243898D02*
X323917Y240059D01*
X320079Y243898D02*
Y250197D01*
X323622Y253740D01*
X324606D01*
X88976Y69291D02*
X92913Y65354D01*
X100098D01*
X108366Y73622D01*
X324311Y270571D02*
Y274016D01*
Y279921D01*
X69193Y238150D02*
X79193Y228150D01*
X90551D01*
X22047Y114173D02*
X61910D01*
X62697Y114961D01*
X22047Y106299D02*
X62008D01*
X62795Y105512D01*
D43*
X254134Y227756D02*
X260335D01*
X250886Y231004D02*
X254134Y227756D01*
X250000Y231004D02*
X250886D01*
X268012Y237303D02*
Y245669D01*
Y250984D01*
X266535Y252461D02*
X268012Y250984D01*
X266535Y252461D02*
Y257677D01*
X202658Y85236D02*
X205413D01*
X207874Y82776D01*
Y75394D02*
Y82776D01*
X106299Y113091D02*
Y115354D01*
X99114Y122539D02*
X106299Y115354D01*
X98425Y122539D02*
X99114D01*
X202165Y221358D02*
Y236811D01*
X198721Y217913D02*
X202165Y221358D01*
X42913Y148721D02*
Y154823D01*
X40709Y146516D02*
X42913Y148721D01*
X40709Y140059D02*
Y146516D01*
X49213Y142618D02*
Y148819D01*
X46654Y140059D02*
X49213Y142618D01*
X40709Y140059D02*
X46654D01*
X49213Y148819D02*
X52973Y152579D01*
X213976Y276181D02*
Y286319D01*
X171358Y271654D02*
X180315D01*
X167854Y268150D02*
X171358Y271654D01*
X96752Y227658D02*
X100768D01*
X112894Y253150D02*
X114634D01*
X107677Y247933D02*
X112894Y253150D01*
X107677Y237598D02*
Y247933D01*
X114634Y253150D02*
X118453Y256968D01*
X203543Y198524D02*
Y214173D01*
X196063Y191043D02*
X203543Y198524D01*
X196063Y186122D02*
Y191043D01*
X160583Y253150D02*
X165846D01*
X114567Y227618D02*
X118453D01*
X125343Y217618D02*
X129134D01*
X132579Y221063D01*
Y240748D01*
X134980Y243150D01*
X139126D01*
X149189Y226650D02*
X153354D01*
X144465Y221925D02*
X149189Y226650D01*
X138787Y221925D02*
X144465D01*
X139126Y222264D02*
Y238150D01*
X138787Y221925D02*
X139126Y222264D01*
X125343Y227618D02*
Y237618D01*
Y237842D01*
X135650Y248150D01*
X139126D01*
X125221Y276433D02*
X131791Y269862D01*
Y265945D02*
Y269862D01*
Y265945D02*
X134587Y263150D01*
X139126D01*
X125221Y257110D02*
Y266933D01*
X125000Y256890D02*
X125221Y257110D01*
X125000Y256890D02*
X131004D01*
X132264Y258150D01*
X139126D01*
X153354Y217201D02*
X157850D01*
X159354Y218705D01*
X163854D01*
X112358Y276433D02*
X118331D01*
X107677Y271752D02*
X112358Y276433D01*
X107677Y266732D02*
Y271752D01*
Y256890D02*
Y266732D01*
X107697Y237618D02*
X118453D01*
X107677Y237598D02*
X107697Y237618D01*
X283071Y245433D02*
Y245669D01*
X42913Y178248D02*
Y182283D01*
X40709Y184488D02*
X42913Y182283D01*
X40709Y184488D02*
Y190551D01*
X57973Y163091D02*
Y167618D01*
X52973Y152579D02*
Y163091D01*
X49213Y172047D02*
X52362Y168898D01*
X56693D01*
X57973Y167618D01*
X114961Y90158D02*
Y95276D01*
X112992Y97244D02*
X114961Y95276D01*
X107087Y97244D02*
X112992D01*
X105807Y95965D02*
X107087Y97244D01*
X98032Y95965D02*
X105807D01*
X119961Y90158D02*
Y95787D01*
X105118Y103150D02*
Y109843D01*
X102461Y112500D02*
X105118Y109843D01*
X89075Y112500D02*
X102461D01*
X84252Y117323D02*
X89075Y112500D01*
X84252Y117323D02*
Y125354D01*
X70138D02*
X84252D01*
X69980Y125197D02*
X70138Y125354D01*
X69980Y115354D02*
Y125197D01*
X69587Y114961D02*
X69980Y115354D01*
X69685Y102756D02*
Y105512D01*
X64016Y97087D02*
X69685Y102756D01*
X64016Y92126D02*
Y97087D01*
Y92126D02*
X70866D01*
X77559Y98819D01*
X90158D01*
X93012Y95965D01*
X98032D01*
X48031Y91535D02*
X63425D01*
X64016Y92126D01*
X114961Y111417D02*
X119961D01*
X106299Y90158D02*
X109961D01*
X160583Y243150D02*
X166870D01*
X171161Y247441D01*
X177165D01*
X160583Y238150D02*
X167854D01*
X169193Y236811D01*
X177165D01*
X177165Y226969D02*
Y236811D01*
X177165Y236811D01*
X184055Y226969D02*
X194882D01*
X195276Y226575D01*
X184055Y236811D02*
X195276D01*
X195276Y236811D01*
X153354Y226650D02*
Y231209D01*
X153445Y231299D01*
X40709Y190551D02*
X47244D01*
X49213Y188583D01*
Y172047D02*
Y188583D01*
X129398Y280610D02*
X138878D01*
X125221Y276433D02*
X129398Y280610D01*
X160583Y268150D02*
X167854D01*
X160583Y263150D02*
X168366D01*
X172736Y267520D01*
X177559D01*
Y258071D02*
Y267520D01*
X202165Y277362D02*
Y287992D01*
X184449Y258071D02*
X188091D01*
X190059Y260039D01*
Y266732D01*
X185236Y276575D02*
X190059D01*
X184449Y277362D02*
X185236Y276575D01*
X184449Y277362D02*
Y287598D01*
X190059Y266732D02*
X194783D01*
X96752Y247441D02*
X99606D01*
X250000Y231004D02*
Y239862D01*
X260335Y235236D02*
Y238681D01*
X261122Y239469D01*
Y245669D01*
X274311Y215748D02*
Y220177D01*
X271161Y223327D02*
X274311Y220177D01*
X271161Y223327D02*
Y227756D01*
X114567Y266933D02*
X118331D01*
X202165Y277362D02*
X210039Y269488D01*
X203543Y214173D02*
Y217717D01*
X210039Y224213D01*
Y269488D01*
X175984Y218110D02*
X184055Y226181D01*
Y226969D01*
X194488Y217913D02*
X198721D01*
X257087Y231496D02*
X260335D01*
X190059Y286319D02*
X195276D01*
X315748Y141536D02*
Y148031D01*
X319291Y144882D02*
Y148031D01*
X312205Y145079D02*
Y148031D01*
Y145079D02*
X315748Y141536D01*
X315846Y141437D01*
X266535Y257677D02*
X268406D01*
X195276Y275590D02*
X198917Y271949D01*
Y270768D02*
Y271949D01*
Y270768D02*
X202165Y267520D01*
X180315Y271654D02*
X185187Y266781D01*
X195276Y276870D01*
Y275590D02*
Y276870D01*
X177165Y247441D02*
X181791Y252067D01*
X190453D01*
X195669Y257283D01*
X184055Y246358D02*
Y247441D01*
X181004Y243307D02*
X184055Y246358D01*
X177165Y236811D02*
Y237992D01*
X181004Y241831D01*
Y243307D01*
X195276Y247180D02*
Y247835D01*
Y246752D02*
X195489Y246966D01*
X195276Y236811D02*
Y237428D01*
Y246752D01*
Y247835D02*
X198819Y251378D01*
Y252658D01*
X202559Y256398D01*
X180118Y192618D02*
X186614Y186122D01*
X180118Y192618D02*
Y203150D01*
X175984Y207283D02*
X180118Y203150D01*
X139126Y243150D02*
X146299D01*
X163854Y225594D01*
X96752Y266933D02*
X100587D01*
X100787Y266732D01*
X96752Y237598D02*
X96909Y237441D01*
X96752Y237598D02*
X100630D01*
X100787Y237441D01*
X114567Y247047D02*
X118504D01*
X138878Y287500D02*
X143996D01*
X145669Y289173D01*
X150295D01*
X105118Y103150D02*
X107579Y100689D01*
X115059D01*
X119961Y95787D01*
X300886Y251575D02*
Y255217D01*
X47736Y236713D02*
Y243209D01*
X175984Y207283D02*
Y214173D01*
Y218110D01*
D44*
X283071Y239370D02*
Y245433D01*
X278937Y235236D02*
X283071Y239370D01*
X271161Y235236D02*
X278937D01*
X270079D02*
X271161D01*
X268012Y237303D02*
X270079Y235236D01*
X62972Y163091D02*
Y174331D01*
X62500Y174803D02*
X62972Y174331D01*
X154232Y250197D02*
Y255984D01*
Y250197D02*
X156280Y248150D01*
X156398Y258150D02*
X160583D01*
X154232Y255984D02*
X156398Y258150D01*
X39665Y213779D02*
X44488D01*
X234842Y65847D02*
X292913D01*
X211713Y88976D02*
X234842Y65847D01*
X66929Y75984D02*
X74410D01*
X63189Y72244D02*
X66929Y75984D01*
X89370Y64173D02*
X93976Y59567D01*
Y53150D02*
Y59567D01*
X70669Y72047D02*
X74409D01*
X86614Y61811D02*
X88976Y59449D01*
Y53150D02*
Y59449D01*
X87972Y163091D02*
X97539D01*
X77973Y158642D02*
Y163091D01*
Y158642D02*
X80610Y156004D01*
X98425D01*
X72047Y68110D02*
X73228D01*
X70669Y69488D02*
X72047Y68110D01*
X70669Y69488D02*
Y72047D01*
X69980Y52362D02*
X75197Y57579D01*
Y66142D01*
X73228Y68110D02*
X75197Y66142D01*
X63189Y69095D02*
Y72244D01*
Y69095D02*
X64173Y68110D01*
X66535D01*
X70374Y64272D01*
Y63386D02*
Y64272D01*
X83976Y45551D02*
Y53150D01*
Y45551D02*
X86614Y42913D01*
X90945D01*
X95768D01*
X48031Y78937D02*
X53347D01*
X60039Y72244D01*
X63189D01*
X69980Y42913D02*
Y52362D01*
X125394Y247047D02*
X129429D01*
X135531Y253150D01*
X139126D01*
X156280Y248150D02*
X160583D01*
X67972Y163091D02*
Y170236D01*
X72539Y174803D01*
X72973Y163091D02*
Y168248D01*
X74016Y169291D01*
X77953D01*
X79429Y170768D01*
Y174803D01*
X82973Y168307D02*
X89468Y174803D01*
X82973Y163091D02*
Y168307D01*
X124961Y111417D02*
Y113937D01*
X128740Y117717D01*
Y121358D01*
X267323Y231496D02*
X271161D01*
X267421Y215748D02*
Y220374D01*
X266142Y221654D02*
X267421Y220374D01*
X266142Y221654D02*
Y230315D01*
X267323Y231496D01*
X181004Y210335D02*
X184941D01*
X271161Y231496D02*
X275197D01*
X94095Y68898D02*
Y74291D01*
X93976Y74410D02*
X94095Y74291D01*
X74410Y75984D02*
X86221Y64173D01*
X89370D01*
X74409Y72047D02*
X84646Y61811D01*
X86614D01*
X216634Y39173D02*
X221850D01*
X240059D02*
X245472D01*
X287402Y102756D02*
X290453D01*
X75197Y42913D02*
X79429D01*
X52953Y141654D02*
X52973Y141634D01*
X52953Y141654D02*
Y148130D01*
X57973Y141634D02*
Y148130D01*
X109961Y111417D02*
Y116909D01*
X108465Y118405D02*
X109961Y116909D01*
X108465Y118405D02*
Y120768D01*
X109055Y121358D01*
X196260Y46063D02*
X204921D01*
X193110Y49213D02*
X196260Y46063D01*
X149370Y45276D02*
X153307Y49213D01*
X193110D01*
X160602Y258169D02*
X167717D01*
D45*
X283071Y245669D02*
X283071Y245669D01*
X193701Y103642D02*
X197343D01*
X204232Y110531D01*
X205217D01*
X189862Y138386D02*
Y143405D01*
X83976Y80315D02*
Y80433D01*
Y74410D02*
Y80315D01*
X304823Y145669D02*
X305020Y145866D01*
X294390Y95177D02*
X294390Y95177D01*
X221457Y187992D02*
Y192027D01*
X221457Y192028D01*
Y196555D01*
X214567Y161614D02*
Y165157D01*
Y170177D01*
X205512Y179232D02*
X214567Y170177D01*
X211319Y158366D02*
X214567Y161614D01*
X211319Y153543D02*
Y158366D01*
X118635Y118274D02*
X118799Y118110D01*
X119961Y116949D01*
X118701Y118110D02*
X118799D01*
X118635Y118274D02*
Y122539D01*
X119961Y111417D02*
Y116949D01*
X118701Y129035D02*
Y133071D01*
X118405Y128740D02*
X118701Y129035D01*
X118405Y128740D02*
X118898Y128248D01*
X116240Y135433D02*
X133071D01*
X109055Y128248D02*
X116240Y135433D01*
X133071D02*
X139961Y128543D01*
X66535Y81693D02*
Y84744D01*
Y81693D02*
X66929Y81299D01*
X259941Y122736D02*
Y126476D01*
X279035Y126870D02*
X281102D01*
X277067Y128839D02*
X279035Y126870D01*
X215650Y149016D02*
X220177Y153543D01*
X211417Y149016D02*
X215650D01*
X211417Y144783D02*
Y149016D01*
X227067Y144095D02*
Y149016D01*
Y153543D01*
X164567Y171653D02*
Y178898D01*
X202264Y246654D02*
X202854Y247244D01*
X206398D01*
X85728Y268858D02*
X87653Y266933D01*
X83803D02*
X85728Y268858D01*
X84783Y237598D02*
X85335Y238150D01*
X85886Y237598D01*
X100768Y227658D02*
X100787Y227677D01*
X54527Y258661D02*
X54528Y258661D01*
X54527Y254134D02*
Y258661D01*
X99606Y247441D02*
X100394Y246654D01*
X110236Y170374D02*
X114173D01*
X115059Y171260D01*
X138976Y170394D02*
X155984D01*
X121949Y170472D02*
X138898D01*
X138976Y170394D01*
X154626Y152264D02*
X155512D01*
X146496Y160394D02*
X154626Y152264D01*
X138976Y160394D02*
X146496D01*
X143898Y145374D02*
X155512D01*
X138878Y150394D02*
X143898Y145374D01*
X112205Y150394D02*
X138878D01*
X197343Y132480D02*
X198721Y133858D01*
X189862Y132480D02*
X197343D01*
X198721Y147835D02*
X204429Y153543D01*
X198721Y133858D02*
Y147835D01*
X200984Y140650D02*
X204429Y144095D01*
X200984Y132972D02*
Y140650D01*
X196555Y128543D02*
X200984Y132972D01*
X272146Y76772D02*
Y81595D01*
X98425Y134153D02*
Y139272D01*
Y129429D02*
Y134153D01*
X85138D02*
X98425D01*
X82973Y136319D02*
X85138Y134153D01*
X82973Y136319D02*
Y141634D01*
X138976Y100551D02*
X145630D01*
X147933Y102854D01*
X152362D01*
X124606Y73524D02*
X124705Y73425D01*
X119685Y73524D02*
X124606D01*
X119587Y73622D02*
X119685Y73524D01*
X115256Y73622D02*
X119587D01*
X283366Y117224D02*
X287697Y112894D01*
X230020Y117224D02*
X283366D01*
X228051Y115256D02*
X230020Y117224D01*
X221358Y103642D02*
X229774Y112057D01*
X236860D02*
X237106Y112303D01*
X229774Y112057D02*
X236860D01*
X231988Y81595D02*
X237106D01*
X211319Y144685D02*
X211417Y144783D01*
X193701Y110531D02*
X198917D01*
X227264Y118012D02*
X228642Y119390D01*
X195669Y118012D02*
X227264D01*
X198917Y115256D02*
X228051D01*
X202051Y120587D02*
X221768D01*
X198031Y124606D02*
X202051Y120587D01*
X189862Y124606D02*
X198031D01*
X221768Y120587D02*
X225689Y124508D01*
X194488Y202264D02*
Y210433D01*
Y202264D02*
X197244Y199508D01*
X205512Y186122D02*
Y191240D01*
X316437Y59646D02*
Y63976D01*
Y67126D01*
X314961Y68602D02*
X316437Y67126D01*
X309646Y68602D02*
X314961D01*
X306890Y65847D02*
X309646Y68602D01*
X302658Y65847D02*
X306890D01*
X316437Y59646D02*
X316535Y59744D01*
X309547Y74606D02*
X312697D01*
X307677Y72736D02*
X309547Y74606D01*
X302658Y72736D02*
X307677D01*
X292913D02*
X302658D01*
X239173Y46063D02*
X240059D01*
X235531Y42421D02*
X239173Y46063D01*
X232480Y42421D02*
X235531D01*
X229232Y39173D02*
X232480Y42421D01*
X228346Y39173D02*
X229232D01*
X259646Y46063D02*
X263484D01*
X252756Y39173D02*
X259646Y46063D01*
X251772Y39173D02*
X252756D01*
X263484D02*
X271161D01*
X281791Y49803D01*
X304232D01*
X312697Y58268D01*
Y63976D01*
X320177Y52953D02*
Y63976D01*
X307874Y40650D02*
X320177Y52953D01*
X294980Y40650D02*
X307874D01*
X251772Y46063D02*
Y50197D01*
X208661Y138976D02*
X215748D01*
X220177Y143405D01*
X215748Y138976D02*
Y139075D01*
X246654Y112697D02*
X271752D01*
X287697Y112894D02*
X294587D01*
X287451Y128199D02*
X294587Y135335D01*
X283169Y119390D02*
X287451Y123671D01*
Y128199D01*
X177657Y124114D02*
X181988Y119783D01*
X165061Y124114D02*
X177657D01*
X163585Y122638D02*
X165061Y124114D01*
X164370Y125984D02*
X179035D01*
X181988Y123031D01*
X228642Y119390D02*
X283169D01*
X205217Y103642D02*
X221358D01*
X294587Y135335D02*
Y136221D01*
X320177Y78839D02*
X320276Y78937D01*
X193701Y85532D02*
X194095Y85138D01*
X198721D01*
X198819Y85236D01*
X202658D01*
X193701Y92421D02*
X193996Y92716D01*
X202658D01*
X184153Y92421D02*
X193701D01*
X175000Y90256D02*
Y111713D01*
Y90256D02*
X179724Y85532D01*
X184153D01*
X206594Y52264D02*
X222933D01*
X173031Y85827D02*
X206594Y52264D01*
X173031Y85827D02*
Y111713D01*
X222933Y52264D02*
X228346Y46850D01*
Y46063D02*
Y46850D01*
X189862Y128543D02*
X196555D01*
X271752Y112697D02*
X272146Y112303D01*
X220177Y143405D02*
Y144095D01*
X155512Y152264D02*
X162598D01*
X165157Y149705D01*
Y143405D02*
Y149705D01*
X150000Y117323D02*
X151378Y118701D01*
X158169D01*
X182874Y107087D02*
Y111713D01*
Y107087D02*
X186417Y103543D01*
X188386D01*
X188484Y103642D01*
X193701D01*
X176969Y105807D02*
Y111713D01*
Y105807D02*
X184547Y98228D01*
X200098D01*
X205217Y103347D01*
Y103642D01*
X200098Y128543D02*
X205906D01*
X198130Y126575D02*
X200098Y128543D01*
X189862Y126575D02*
X198130D01*
X161122Y143405D02*
X163189D01*
X159153Y145374D02*
X161122Y143405D01*
X155512Y145374D02*
X159153D01*
X162992Y124606D02*
X164370Y125984D01*
X158169Y124606D02*
X162992D01*
X158169Y122638D02*
X163585D01*
X176279Y120965D02*
X180905Y116339D01*
X165551Y120965D02*
X176279D01*
X165551Y118012D02*
X176403D01*
X176502Y118110D01*
X184646Y130512D02*
X189862D01*
X176502Y118110D02*
X178937Y115675D01*
Y111713D02*
Y115675D01*
X167126Y91929D02*
Y111713D01*
X125197Y53150D02*
X165157Y93110D01*
X98976Y53150D02*
X125197D01*
X135039Y48720D02*
Y56299D01*
X169095Y90354D01*
Y111713D01*
X165157Y93110D02*
Y111713D01*
X163189Y101378D02*
Y111713D01*
X152362Y90551D02*
X163189Y101378D01*
X138976Y90551D02*
X152362D01*
X149094Y120669D02*
X158169D01*
X138976Y110551D02*
X149094Y120669D01*
X110236Y180315D02*
X115059D01*
X114075Y247047D02*
X114075Y247047D01*
X98976Y50630D02*
Y53150D01*
Y50630D02*
X102657Y46949D01*
Y42913D02*
Y46949D01*
X152362Y109744D02*
Y115354D01*
X153740Y116732D02*
X158169D01*
X152362Y115354D02*
X153740Y116732D01*
X152362Y109744D02*
X157776D01*
X157874Y109843D01*
X204429Y143209D02*
Y144095D01*
Y143209D02*
X208661Y138976D01*
X206102Y160433D02*
Y165354D01*
X204429Y158760D02*
X206102Y160433D01*
X204429Y153543D02*
Y158760D01*
X223031Y160827D02*
Y165354D01*
X220177Y157972D02*
X223031Y160827D01*
X220177Y153543D02*
Y157972D01*
X178937Y143405D02*
Y167913D01*
X175039Y171811D02*
X178937Y167913D01*
X176969Y143405D02*
Y166339D01*
X170866Y172441D02*
X176969Y166339D01*
X170866Y172441D02*
Y192598D01*
X175000Y143405D02*
Y164370D01*
X167323Y172047D02*
X175000Y164370D01*
X158967Y194498D02*
X167323Y186142D01*
X173031Y143405D02*
Y163189D01*
X164567Y171653D02*
X173031Y163189D01*
X149173Y194291D02*
X164567Y178898D01*
X167323Y172047D02*
Y186142D01*
X155984Y170394D02*
X167126Y159252D01*
Y143405D02*
Y159252D01*
X83976Y74410D02*
X84252Y74685D01*
X128740Y128248D02*
X136319D01*
X137992Y126575D01*
X158169D01*
X98976Y74410D02*
Y77323D01*
X96358Y237598D02*
X96358Y237598D01*
X100394Y246654D02*
X100787Y247047D01*
X98976Y74410D02*
X99213Y74646D01*
Y80315D01*
X108169Y146358D02*
X112205Y150394D01*
X90847Y146358D02*
X108169D01*
X87972Y141634D02*
Y143484D01*
X90847Y146358D01*
X121949Y180315D02*
X132992D01*
X133071Y180394D01*
X211319Y144095D02*
Y144685D01*
X217717Y170669D02*
X223031Y165354D01*
X217717Y170669D02*
Y180315D01*
X213976Y184055D02*
X217717Y180315D01*
X213976Y184055D02*
Y187992D01*
X205512Y186122D02*
X209350D01*
X211221Y187992D01*
X213976D01*
X180905Y111713D02*
Y116339D01*
X184843Y143405D02*
X186909D01*
X189862Y136417D02*
X193898D01*
X195669Y138189D01*
X195653Y135024D02*
X195669Y135039D01*
X194276Y135024D02*
X195653D01*
X193701Y134449D02*
X194276Y135024D01*
X189862Y134449D02*
X193701D01*
X301476Y129035D02*
Y136221D01*
Y129035D02*
X301870Y128642D01*
X292815Y124902D02*
X297244D01*
X301870Y121161D02*
X302264Y120768D01*
X315453D01*
X301870Y113287D02*
Y121161D01*
X301476Y112894D02*
X301870Y113287D01*
Y128642D02*
X305020D01*
X309744Y123917D01*
X315453D01*
X225689Y124508D02*
Y128543D01*
X211319D02*
X215846D01*
X220276D01*
X132283Y87244D02*
X138976Y80551D01*
X147441Y105709D02*
X151476Y109744D01*
X152362D01*
X132283Y87244D02*
Y101870D01*
X136122Y105709D01*
X147441D01*
X139961Y128543D02*
X158169D01*
X110433Y137402D02*
X134547D01*
X141437Y130512D01*
X158169D01*
X192520Y111713D02*
X193701Y110531D01*
X184843Y111713D02*
X192520D01*
X186221Y116732D02*
X189862D01*
X184843Y115354D02*
X186221Y116732D01*
X184843Y111713D02*
Y115354D01*
X182874Y143405D02*
Y166041D01*
X196063Y179230D01*
Y179232D01*
X180905Y143405D02*
Y166929D01*
X186614Y172638D01*
Y179232D01*
X184941Y210335D02*
X185039Y210433D01*
X184941Y210335D02*
X184941Y210335D01*
X185039Y217913D02*
X185925D01*
X193405Y210433D01*
X194488D01*
X251378Y216043D02*
X251673Y215748D01*
X264961Y170866D02*
X277165D01*
X262598Y173228D02*
Y174016D01*
X262205Y173622D02*
X264961Y170866D01*
X260630Y200394D02*
X261024D01*
X259842D02*
X260630D01*
X51968Y174803D02*
X55610D01*
X96358D02*
X96457Y174902D01*
Y178740D01*
X220866Y286319D02*
X225098D01*
X315453Y127067D02*
Y130217D01*
Y141044D01*
X315846Y141437D01*
X277165Y170866D02*
X286457D01*
X295748D01*
X305039D01*
X314331D01*
X323622D01*
X237106Y75394D02*
Y81595D01*
X251772Y50197D02*
Y54528D01*
X46654Y263386D02*
X47638Y264370D01*
X46260Y255512D02*
X47638Y254134D01*
X118504Y247047D02*
X118504Y247047D01*
X175039Y171811D02*
Y191890D01*
X173622Y286319D02*
X177559D01*
X173622Y286221D02*
X173721D01*
X288819Y225433D02*
X288976Y225590D01*
X130217Y48524D02*
Y55020D01*
X167126Y91929D01*
X133071Y180394D02*
X149331D01*
X169095Y160630D01*
Y143405D02*
Y160630D01*
X204921Y39173D02*
X205807D01*
X208957Y42323D01*
X211910D01*
X215650Y46063D01*
X216634D01*
X160583Y258150D02*
X160602Y258169D01*
X171555Y214173D02*
X175984D01*
X176476D01*
D46*
X84252Y105354D02*
Y107382D01*
X83976Y107658D02*
X84252Y107382D01*
X83976Y107658D02*
Y111024D01*
X31496Y165354D02*
X36220Y160630D01*
X42913D01*
X35728Y169783D02*
X43012D01*
X55512Y270768D02*
Y276575D01*
X54429Y269685D02*
X55512Y270768D01*
X61476Y276575D02*
X69193Y268858D01*
X55512Y276575D02*
X61476D01*
X75827Y258760D02*
X85728Y248858D01*
X65847Y258760D02*
X75827D01*
X60236Y264370D02*
X65847Y258760D01*
X54527Y264370D02*
X60236D01*
X295965Y269094D02*
X297047Y268012D01*
X295965Y269094D02*
Y273327D01*
X333957Y222047D02*
X340315D01*
X326673Y229331D02*
X333957Y222047D01*
X297047Y229331D02*
X326673D01*
X293799Y232579D02*
Y235827D01*
Y232579D02*
X297047Y229331D01*
X84252Y105354D02*
X84705Y105807D01*
X98425D01*
X32283Y173228D02*
X35728Y169783D01*
X22047Y173228D02*
X32283D01*
X48819Y63386D02*
X63484D01*
X38583Y73622D02*
X48819Y63386D01*
X22047Y73622D02*
X38583D01*
X22047Y57874D02*
X46850D01*
X48031Y43898D02*
X56496D01*
X57480Y42913D01*
X63090D01*
X107677Y217913D02*
Y227756D01*
Y217913D02*
X118157D01*
X118453Y217618D01*
X22047Y165354D02*
X31496D01*
X55905Y125197D02*
X63090D01*
X54527Y126575D02*
X55905Y125197D01*
X48031Y126575D02*
X54527D01*
X165039Y198425D02*
X170866Y192598D01*
X84016Y86378D02*
Y92126D01*
X78347D02*
X84016D01*
X78583Y105354D02*
X84252D01*
X293799Y235827D02*
Y238484D01*
X297342Y242028D01*
Y246457D01*
X297047Y264370D02*
Y268012D01*
Y247736D02*
Y264370D01*
Y247736D02*
X297342Y247441D01*
Y246457D02*
Y247441D01*
X340059Y235827D02*
Y246063D01*
X340059Y235827D02*
X340059Y235827D01*
X340059Y222303D02*
Y235827D01*
Y222303D02*
X340315Y222047D01*
X22047Y263386D02*
X46654D01*
X22047Y255512D02*
X46260D01*
X22047Y219291D02*
X39370Y236614D01*
X47638D01*
X22047Y211417D02*
X36909Y226279D01*
X47638D01*
X85728Y248858D02*
X93760Y256890D01*
X100787D01*
X100787Y227756D02*
Y237441D01*
X145039Y198425D02*
X149173Y194291D01*
X155039Y198425D02*
X158967Y194498D01*
X175039Y191890D02*
Y198425D01*
X46850Y57874D02*
X51968Y52756D01*
X63484D01*
X135039Y40945D02*
Y48720D01*
X125039Y40945D02*
X130217Y46122D01*
Y48524D01*
X145039Y40945D02*
Y41673D01*
X139469Y47244D02*
X145039Y41673D01*
X139469Y47244D02*
Y48720D01*
X135039Y198425D02*
X138435Y195029D01*
X145039Y40945D02*
X149370Y45276D01*
D47*
X87653Y266933D02*
X92028D01*
X79528D02*
X83803D01*
X63287Y247441D02*
X75335D01*
X79429Y237598D02*
X84783D01*
X85886D02*
X91240D01*
X62835Y218150D02*
X69193D01*
X75157D01*
X258563Y215748D02*
X267421D01*
X269685Y194882D02*
Y204331D01*
X267421Y206594D02*
X269685Y204331D01*
X267421Y206594D02*
Y215748D01*
X309055Y222047D02*
X320315D01*
X299528Y198819D02*
X329528D01*
X299528D02*
Y210020D01*
X298031Y211516D02*
X299528Y210020D01*
X298031Y211516D02*
Y222047D01*
X255512Y283465D02*
X256299Y282677D01*
X258268D01*
X259055D02*
X262697D01*
X253543Y283465D02*
X255512D01*
X245669D02*
X253543D01*
X20709Y140059D02*
Y147087D01*
X22047Y148425D01*
Y157480D01*
X20709Y190394D02*
Y190551D01*
X14567Y184252D02*
X20709Y190394D01*
X14567Y160630D02*
Y184252D01*
Y160630D02*
X17717Y157480D01*
X22047D01*
X315748Y148031D02*
X319291D01*
X312205D02*
X315748D01*
X235827Y189370D02*
Y194980D01*
D48*
X258268Y282677D02*
X259055D01*
X300787Y255315D02*
X300886Y255217D01*
X47638Y236614D02*
X47736Y236713D01*
D49*
X139469Y48720D02*
Y57284D01*
X171063Y88878D01*
Y111713D01*
X138435Y195029D02*
X171063Y162401D01*
Y143405D02*
Y162401D01*
D50*
X25591Y299213D02*
D03*
X328740D02*
D03*
Y31496D02*
D03*
X25591Y31890D02*
D03*
D51*
X22047Y211417D02*
D03*
Y255512D02*
D03*
Y57874D02*
D03*
Y98425D02*
D03*
Y157480D02*
D03*
D52*
Y219291D02*
D03*
Y227165D02*
D03*
Y271260D02*
D03*
Y263386D02*
D03*
X287106Y40650D02*
D03*
X22047Y65748D02*
D03*
Y73622D02*
D03*
Y106299D02*
D03*
Y114173D02*
D03*
Y165354D02*
D03*
Y173228D02*
D03*
D53*
X294980Y40650D02*
D03*
D54*
X299528Y198819D02*
D03*
X329528D02*
D03*
D55*
X299528Y178819D02*
D03*
X329528D02*
D03*
D56*
X138976Y100551D02*
D03*
Y90551D02*
D03*
Y110551D02*
D03*
Y160394D02*
D03*
Y170394D02*
D03*
Y150394D02*
D03*
X115039Y40945D02*
D03*
X125039D02*
D03*
X135039D02*
D03*
X145039D02*
D03*
X165039D02*
D03*
X175039D02*
D03*
X155039D02*
D03*
X115039Y198425D02*
D03*
X125039D02*
D03*
X135039D02*
D03*
X145039D02*
D03*
X165039D02*
D03*
X175039D02*
D03*
X155039D02*
D03*
X269685Y175197D02*
D03*
D57*
X138976Y80551D02*
D03*
Y180394D02*
D03*
D58*
X185039Y40945D02*
D03*
Y198425D02*
D03*
X269685Y194882D02*
D03*
D59*
X325689Y115256D02*
D03*
Y132579D02*
D03*
M02*
