M48
;Layer_Color=9474304
;FILE_FORMAT=2:5
INCH,LZ
;TYPE=PLATED
T3F00S00C0.01181
T4F00S00C0.03150
T5F00S00C0.05906
;TYPE=NON_PLATED
T1F00S00C0.03543
T2F00S00C0.12598
%
T03
X0075197Y0042913
X0090945
X0094095Y0068898
X0119587Y0073622
X022185Y0039173
X0245472
X0251772Y0050197
X0272146Y0076772
X0320276Y0078937
X0316535Y0059744
X029439Y0095177
X0287402Y0102756
X0281102Y012687
X0277165Y0140945
X0260039Y0137303
X0259941Y0122736
X0246654Y0112697
X0297244Y0124902
X0301181Y0145669
X0312205Y0148031
X0315748
X0319291
X0323622Y0170866
X0314331
X0305039
X0295748
X0286457
X0277165
X0262598Y0174016
Y0181693
Y018937
X026063Y0200394
X0255512Y0204724
X0251181Y0209055
X0246063Y0216535
X0258661Y0222244
X0257087Y0231496
X0275197
X0277008Y0225433
X0290945
Y0219685
X0288583Y0213386
Y0203543
Y0193701
X0295748Y0187402
X0305039
X0314331
X0323622
X0235827Y019498
X0221457Y0192028
X0205512Y019124
X0197244Y0199508
X0198721Y0217913
X0181004Y0210335
X0153445Y0231299
X0114567Y0227658
X0096752
X0096457Y017874
X0110236Y0180315
Y0170374
X0110433Y0137402
X0118701Y0133071
Y011811
X0106299Y0113091
Y0090158
X0091339Y0088976
X0083976Y0086378
Y0080315
X0099213
X0078583Y0092126
Y0105354
X0083976Y0111024
X0098425Y0134153
X015Y0117323
X0157874Y0109843
X0165551Y0118012
Y0120965
X0181988Y0119783
Y0123031
X0184646Y0130512
X0186909Y0143405
X0189862
X0195669Y0138189
Y0135039
Y0118012
X0198917Y0115256
Y0110531
X0188386Y0103543
X0198819Y0085236
X0231988Y0081595
X0220276Y0128543
X0211319
X0215748Y0139075
X0211417Y0149016
X0227067
X0214567Y0165157
X0051968Y0174803
X0052953Y014813
X0057973
X0066535Y0084744
X0062835Y021815
X0075157
X0039665Y0213779
X0063287Y0247441
X0075335
X0054528Y0258661
X0054429Y0269685
X0049409Y0276083
X0079528Y0266933
X0092028
X0096752
X0114567
Y025315
Y0247047
X0129429
X0154232Y025315
X0165846
X0190059Y0266732
Y0276575
Y0286319
X0173622
X0225098
X0206398Y0247244
X0096752Y0247441
Y0237598
X009124
X0079429
X0235039Y0259842
X0253543Y0283465
X0258268Y0282677
X0277165Y0258661
X0288976
X0300886Y0251575
X0315551Y0244488
X0324311Y0274016
T04
X0022047Y0057874
Y0065748
Y0073622
X0115039Y0040945
X0125039
X0135039
X0145039
X0155039
X0165039
X0175039
X0185039
X0287106Y004065
X029498
X0269685Y0175197
Y0194882
X0185039Y0198425
X0175039
X0165039
X0155039
X0145039
X0135039
X0125039
X0115039
X0138976Y0180394
Y0170394
Y0160394
Y0150394
Y0110551
Y0100551
Y0090551
Y0080551
X0022047Y0098425
Y0106299
Y0114173
Y015748
Y0165354
Y0173228
Y0211417
Y0219291
Y0227165
Y0255512
Y0263386
Y027126
T05
X0299528Y0178819
Y0198819
X0329528
Y0178819
T01
X0325689Y0115256
Y0132579
T02
X0025591Y003189
X032874Y0031496
X0025591Y0299213
X032874
M30
