G04 Layer_Color=16711935*
%FSLAX25Y25*%
%MOIN*%
G70*
G01*
G75*
%ADD67R,0.06115X0.05328*%
%ADD94C,0.13398*%
%ADD95R,0.06706X0.06706*%
%ADD96C,0.06706*%
%ADD97R,0.06706X0.06706*%
%ADD98R,0.10642X0.10642*%
%ADD99C,0.10642*%
%ADD100C,0.06800*%
%ADD101R,0.06800X0.06800*%
%ADD102R,0.06800X0.06800*%
%ADD103C,0.03162*%
D67*
X269587Y181595D02*
D03*
Y188484D02*
D03*
D94*
X25591Y299213D02*
D03*
X328740D02*
D03*
Y31496D02*
D03*
X25591Y31890D02*
D03*
D95*
X22047Y211417D02*
D03*
Y255512D02*
D03*
Y57874D02*
D03*
Y98425D02*
D03*
Y157480D02*
D03*
D96*
Y219291D02*
D03*
Y227165D02*
D03*
Y271260D02*
D03*
Y263386D02*
D03*
X287106Y40650D02*
D03*
X22047Y65748D02*
D03*
Y73622D02*
D03*
Y106299D02*
D03*
Y114173D02*
D03*
Y165354D02*
D03*
Y173228D02*
D03*
D97*
X294980Y40650D02*
D03*
D98*
X299528Y198819D02*
D03*
X329528D02*
D03*
D99*
X299528Y178819D02*
D03*
X329528D02*
D03*
D100*
X138976Y100551D02*
D03*
Y90551D02*
D03*
Y110551D02*
D03*
Y160394D02*
D03*
Y170394D02*
D03*
Y150394D02*
D03*
X115039Y40945D02*
D03*
X125039D02*
D03*
X135039D02*
D03*
X145039D02*
D03*
X165039D02*
D03*
X175039D02*
D03*
X155039D02*
D03*
X115039Y198425D02*
D03*
X125039D02*
D03*
X135039D02*
D03*
X145039D02*
D03*
X165039D02*
D03*
X175039D02*
D03*
X155039D02*
D03*
X269685Y175197D02*
D03*
D101*
X138976Y80551D02*
D03*
Y180394D02*
D03*
D102*
X185039Y40945D02*
D03*
Y198425D02*
D03*
X269685Y194882D02*
D03*
D103*
X325689Y115256D02*
D03*
Y132579D02*
D03*
M02*
