G04 Layer_Physical_Order=2*
G04 Layer_Color=255*
%FSLAX25Y25*%
%MOIN*%
G70*
G01*
G75*
%ADD15R,0.05315X0.04528*%
%ADD41C,0.01968*%
%ADD42C,0.01968*%
%ADD43C,0.01575*%
%ADD45C,0.01000*%
%ADD46C,0.02362*%
%ADD47C,0.03150*%
%ADD48C,0.00787*%
%ADD50C,0.12598*%
%ADD51R,0.05905X0.05905*%
%ADD52C,0.05905*%
%ADD53R,0.05905X0.05905*%
%ADD54R,0.09842X0.09842*%
%ADD55C,0.09842*%
%ADD56C,0.06000*%
%ADD57R,0.06000X0.06000*%
%ADD58R,0.06000X0.06000*%
%ADD59C,0.02362*%
G36*
X342486Y11845D02*
X11845D01*
Y318864D01*
X342486D01*
Y11845D01*
D02*
G37*
%LPC*%
G36*
X22047Y118740D02*
X20865Y118584D01*
X19764Y118128D01*
X18818Y117402D01*
X18092Y116457D01*
X17636Y115355D01*
X17481Y114173D01*
X17636Y112991D01*
X18092Y111890D01*
X18818Y110944D01*
X19415Y110486D01*
Y109986D01*
X18818Y109528D01*
X18092Y108582D01*
X17636Y107481D01*
X17481Y106299D01*
X17636Y105117D01*
X18092Y104016D01*
X18818Y103070D01*
X19764Y102344D01*
X20865Y101888D01*
X22047Y101733D01*
X23229Y101888D01*
X24330Y102344D01*
X25276Y103070D01*
X26002Y104016D01*
X26458Y105117D01*
X26614Y106299D01*
X26458Y107481D01*
X26002Y108582D01*
X25276Y109528D01*
X24680Y109986D01*
Y110486D01*
X25276Y110944D01*
X26002Y111890D01*
X26458Y112991D01*
X26614Y114173D01*
X26458Y115355D01*
X26002Y116457D01*
X25276Y117402D01*
X24330Y118128D01*
X23229Y118584D01*
X22047Y118740D01*
D02*
G37*
G36*
X138976Y115165D02*
X137782Y115008D01*
X136669Y114547D01*
X135714Y113814D01*
X134980Y112858D01*
X134519Y111745D01*
X134362Y110551D01*
X134519Y109357D01*
X134980Y108244D01*
X135714Y107288D01*
X136669Y106555D01*
X137782Y106094D01*
X138976Y105937D01*
X140171Y106094D01*
X141284Y106555D01*
X142239Y107288D01*
X142973Y108244D01*
X143433Y109357D01*
X143591Y110551D01*
X143433Y111745D01*
X142973Y112858D01*
X142239Y113814D01*
X141284Y114547D01*
X140171Y115008D01*
X138976Y115165D01*
D02*
G37*
G36*
X56496Y279061D02*
X44094D01*
X43324Y278959D01*
X42605Y278662D01*
X41989Y278189D01*
X37559Y273760D01*
X37086Y273143D01*
X36789Y272424D01*
X36687Y271654D01*
Y213779D01*
X36789Y213009D01*
X37086Y212290D01*
X37559Y211674D01*
X38176Y211200D01*
X38895Y210903D01*
X39665Y210801D01*
X40436Y210903D01*
X41155Y211200D01*
X41771Y211674D01*
X42245Y212290D01*
X42542Y213009D01*
X42644Y213779D01*
Y270420D01*
X45328Y273104D01*
X53483D01*
X53583Y272604D01*
X52939Y272338D01*
X52281Y271833D01*
X51776Y271175D01*
X51459Y270409D01*
X51351Y269587D01*
Y258661D01*
X51459Y257839D01*
X51776Y257073D01*
X52281Y256415D01*
X52939Y255910D01*
X53705Y255593D01*
X54528Y255485D01*
X55350Y255593D01*
X56116Y255910D01*
X56774Y256415D01*
X57279Y257073D01*
X57596Y257839D01*
X57704Y258661D01*
Y269587D01*
X57648Y270011D01*
X58122Y270245D01*
X69351Y259016D01*
X69351Y259016D01*
X69968Y258543D01*
X70686Y258245D01*
X71457Y258144D01*
X71457Y258144D01*
X81837D01*
X100355Y239626D01*
X100355Y239626D01*
X100971Y239153D01*
X101690Y238856D01*
X102461Y238754D01*
X102461Y238754D01*
X118898D01*
X119668Y238856D01*
X120387Y239153D01*
X121004Y239626D01*
X125446Y244069D01*
X126451D01*
Y218458D01*
X122933Y214941D01*
X122460Y214324D01*
X122163Y213605D01*
X122061Y212835D01*
Y201906D01*
X121777Y201688D01*
X121043Y200732D01*
X120582Y199619D01*
X120425Y198425D01*
X120582Y197231D01*
X121043Y196118D01*
X121777Y195162D01*
X122061Y194944D01*
Y173517D01*
X101241Y152697D01*
X100767Y152080D01*
X100470Y151361D01*
X100368Y150591D01*
Y127120D01*
X89233Y115984D01*
X88759Y115367D01*
X88462Y114649D01*
X88360Y113878D01*
Y88976D01*
X88462Y88206D01*
X88759Y87487D01*
X89233Y86870D01*
X89850Y86397D01*
X90568Y86100D01*
X91339Y85998D01*
X92109Y86100D01*
X92828Y86397D01*
X93445Y86870D01*
X93918Y87487D01*
X94215Y88206D01*
X94317Y88976D01*
Y112644D01*
X105452Y123780D01*
X105452Y123780D01*
X105926Y124397D01*
X106223Y125115D01*
X106325Y125886D01*
X106325Y125886D01*
Y149357D01*
X127145Y170177D01*
X127145Y170177D01*
X127619Y170794D01*
X127916Y171513D01*
X128018Y172283D01*
X128018Y172283D01*
Y194944D01*
X128302Y195162D01*
X129035Y196118D01*
X129496Y197231D01*
X129654Y198425D01*
X129496Y199619D01*
X129035Y200732D01*
X128302Y201688D01*
X128018Y201906D01*
Y211601D01*
X131535Y215119D01*
X132008Y215735D01*
X132306Y216454D01*
X132407Y217224D01*
X132407Y217225D01*
Y244069D01*
X165157D01*
X165928Y244170D01*
X166647Y244468D01*
X167263Y244941D01*
X179186Y256864D01*
X235039D01*
X235810Y256966D01*
X236528Y257263D01*
X237145Y257737D01*
X237619Y258353D01*
X237916Y259072D01*
X238018Y259842D01*
X237916Y260613D01*
X237619Y261332D01*
X237145Y261948D01*
X236528Y262422D01*
X235810Y262719D01*
X235039Y262821D01*
X177953D01*
X177953Y262821D01*
X177182Y262719D01*
X176464Y262422D01*
X175847Y261948D01*
X163924Y250026D01*
X155712D01*
X155613Y250525D01*
X155721Y250570D01*
X156338Y251044D01*
X156811Y251660D01*
X157109Y252379D01*
X157211Y253150D01*
X157109Y253920D01*
X156811Y254639D01*
X156338Y255256D01*
X155721Y255729D01*
X155003Y256026D01*
X154232Y256128D01*
X114567Y256128D01*
X113796Y256026D01*
X113078Y255729D01*
X112461Y255256D01*
X111988Y254639D01*
X111690Y253920D01*
X111589Y253150D01*
X111690Y252379D01*
X111988Y251660D01*
X112461Y251044D01*
X113078Y250570D01*
X113796Y250273D01*
X114567Y250171D01*
X122732D01*
X122832Y249671D01*
X122723Y249626D01*
X122107Y249153D01*
X117664Y244710D01*
X103694D01*
X85177Y263228D01*
X84560Y263701D01*
X83842Y263999D01*
X83071Y264100D01*
X72690D01*
X58602Y278189D01*
X57985Y278662D01*
X57267Y278959D01*
X56496Y279061D01*
D02*
G37*
G36*
X301181Y148647D02*
X300410Y148546D01*
X299692Y148249D01*
X299075Y147775D01*
X298602Y147158D01*
X298304Y146440D01*
X298203Y145669D01*
Y103202D01*
X292284Y97283D01*
X291810Y96666D01*
X291513Y95948D01*
X291411Y95177D01*
X291453Y94864D01*
X290979Y94630D01*
X280144Y105466D01*
Y140945D01*
X280042Y141716D01*
X279745Y142434D01*
X279271Y143051D01*
X278655Y143524D01*
X277936Y143822D01*
X277165Y143923D01*
X276395Y143822D01*
X275676Y143524D01*
X275059Y143051D01*
X274586Y142434D01*
X274289Y141716D01*
X274187Y140945D01*
Y104232D01*
X274289Y103462D01*
X274586Y102743D01*
X275059Y102126D01*
X300355Y76831D01*
X300972Y76358D01*
X301690Y76060D01*
X302461Y75959D01*
X302461Y75959D01*
X320276D01*
X321046Y76060D01*
X321765Y76358D01*
X322381Y76831D01*
X322855Y77448D01*
X323152Y78166D01*
X323254Y78937D01*
X323152Y79708D01*
X322855Y80426D01*
X322381Y81043D01*
X321765Y81516D01*
X321046Y81814D01*
X320276Y81915D01*
X303694D01*
X293843Y91767D01*
X294076Y92240D01*
X294390Y92199D01*
X295161Y92300D01*
X295879Y92598D01*
X296496Y93071D01*
X303287Y99862D01*
X303287Y99863D01*
X303760Y100479D01*
X304058Y101198D01*
X304159Y101969D01*
X304159Y101969D01*
Y145669D01*
X304058Y146440D01*
X303760Y147158D01*
X303287Y147775D01*
X302670Y148249D01*
X301952Y148546D01*
X301181Y148647D01*
D02*
G37*
G36*
X325689Y118668D02*
X325534Y118638D01*
X325376D01*
X324685Y118500D01*
X324106Y118260D01*
X323520Y117869D01*
X323520Y117869D01*
X323077Y117426D01*
X323077Y117426D01*
X322685Y116840D01*
X322685Y116840D01*
X322445Y116261D01*
X322308Y115570D01*
Y114943D01*
X322445Y114252D01*
X322685Y113673D01*
X323077Y113087D01*
X323077Y113087D01*
X323520Y112644D01*
X323520Y112644D01*
X324106Y112252D01*
X324106Y112252D01*
X324685Y112013D01*
X325376Y111875D01*
X325534D01*
X325689Y111844D01*
X325844Y111875D01*
X326002D01*
X326694Y112013D01*
X327272Y112252D01*
X327858Y112644D01*
X327858Y112644D01*
X328301Y113087D01*
X328301Y113087D01*
X328693Y113673D01*
X328693Y113673D01*
X328933Y114252D01*
X329070Y114943D01*
Y115570D01*
X328933Y116261D01*
X328693Y116840D01*
X328301Y117426D01*
X328301Y117426D01*
X327858Y117869D01*
X327858Y117869D01*
X327272Y118260D01*
X327272Y118260D01*
X326694Y118500D01*
X326002Y118638D01*
X325844D01*
X325689Y118668D01*
D02*
G37*
G36*
Y135991D02*
X325534Y135960D01*
X325376D01*
X324685Y135822D01*
X324106Y135583D01*
X323520Y135191D01*
X323520Y135191D01*
X323077Y134748D01*
X323077Y134748D01*
X322685Y134162D01*
X322685Y134162D01*
X322445Y133583D01*
X322308Y132892D01*
Y132265D01*
X322445Y131574D01*
X322685Y130995D01*
X323077Y130409D01*
X323077Y130409D01*
X323520Y129966D01*
X323520Y129966D01*
X324106Y129575D01*
X324106Y129575D01*
X324685Y129335D01*
X325376Y129198D01*
X325534D01*
X325689Y129167D01*
X325844Y129198D01*
X326002D01*
X326694Y129335D01*
X327272Y129575D01*
X327858Y129966D01*
X327858Y129966D01*
X328301Y130409D01*
X328301Y130409D01*
X328693Y130995D01*
X328693Y130995D01*
X328933Y131574D01*
X329070Y132265D01*
Y132892D01*
X328933Y133583D01*
X328693Y134162D01*
X328301Y134748D01*
X328301Y134748D01*
X327858Y135191D01*
X327858Y135191D01*
X327272Y135583D01*
X327272Y135583D01*
X326694Y135822D01*
X326002Y135960D01*
X325844D01*
X325689Y135991D01*
D02*
G37*
G36*
X110236Y182832D02*
X109273Y182640D01*
X108457Y182095D01*
X107911Y181278D01*
X107719Y180315D01*
Y178602D01*
X104863Y175745D01*
X94882D01*
X93919Y175554D01*
X93102Y175008D01*
X68741Y150647D01*
X57973D01*
X57009Y150455D01*
X56193Y149910D01*
X55891Y149458D01*
X55247Y149395D01*
X54732Y149910D01*
X53916Y150455D01*
X52953Y150647D01*
X51990Y150455D01*
X51173Y149910D01*
X50627Y149093D01*
X50436Y148130D01*
X50627Y147167D01*
X51173Y146350D01*
X54126Y143397D01*
X54942Y142852D01*
X55905Y142660D01*
X70276D01*
X71239Y142852D01*
X72055Y143397D01*
X96515Y167857D01*
X110236D01*
X111199Y168049D01*
X112016Y168594D01*
X112562Y169411D01*
X112753Y170374D01*
X112562Y171337D01*
X112016Y172154D01*
X111199Y172699D01*
X110236Y172891D01*
X109781D01*
X109589Y173353D01*
X112016Y175779D01*
X112562Y176596D01*
X112753Y177559D01*
Y180315D01*
X112562Y181278D01*
X112016Y182095D01*
X111199Y182640D01*
X110236Y182832D01*
D02*
G37*
G36*
X211417Y151533D02*
X210454Y151341D01*
X209638Y150795D01*
X204716Y145874D01*
X204171Y145058D01*
X203979Y144095D01*
Y116495D01*
X201746Y114262D01*
X201286Y114509D01*
X201434Y115256D01*
Y118602D01*
X201243Y119565D01*
X200697Y120382D01*
X198630Y122449D01*
X197814Y122995D01*
X196850Y123186D01*
X185393D01*
X183768Y124811D01*
X182951Y125357D01*
X181988Y125548D01*
X181841Y125519D01*
X181693Y125548D01*
X180730Y125357D01*
X180182Y124991D01*
X179682Y125258D01*
Y126713D01*
X185491Y132522D01*
X195669D01*
X196632Y132714D01*
X197449Y133260D01*
X197995Y134076D01*
X198186Y135039D01*
X197995Y136003D01*
X197586Y136614D01*
X197995Y137226D01*
X198186Y138189D01*
X197995Y139152D01*
X197449Y139969D01*
X196632Y140514D01*
X195669Y140706D01*
X191375D01*
X191184Y141168D01*
X191642Y141626D01*
X192188Y142442D01*
X192379Y143405D01*
X192188Y144369D01*
X191642Y145185D01*
X190825Y145731D01*
X189862Y145922D01*
X188899Y145731D01*
X188386Y145388D01*
X187873Y145731D01*
X186909Y145922D01*
X183760D01*
X182797Y145731D01*
X181980Y145185D01*
X169185Y132390D01*
X168639Y131573D01*
X168448Y130610D01*
Y123383D01*
X168007Y123148D01*
X167794Y123290D01*
X166831Y123481D01*
X165551D01*
X164588Y123290D01*
X163771Y122744D01*
X163226Y121928D01*
X163034Y120965D01*
X163226Y120001D01*
X163569Y119488D01*
X163226Y118975D01*
X163034Y118012D01*
Y109901D01*
X150926Y97792D01*
X134646D01*
X133683Y97601D01*
X132866Y97055D01*
X126910Y91100D01*
X111811D01*
X110848Y90908D01*
X110031Y90362D01*
X109546Y89877D01*
X109073Y90111D01*
X109079Y90158D01*
Y113091D01*
X108984Y113810D01*
X108706Y114480D01*
X108265Y115056D01*
X107689Y115498D01*
X107019Y115776D01*
X106299Y115870D01*
X105580Y115776D01*
X104909Y115498D01*
X104334Y115056D01*
X103892Y114480D01*
X103614Y113810D01*
X103519Y113091D01*
Y90158D01*
X103614Y89438D01*
X103892Y88768D01*
X104334Y88192D01*
X104909Y87750D01*
X105580Y87472D01*
X106299Y87378D01*
X106346Y87384D01*
X106579Y86910D01*
X104863Y85194D01*
X86339D01*
X85375Y85002D01*
X84559Y84457D01*
X82197Y82095D01*
X81651Y81278D01*
X81459Y80315D01*
X81651Y79352D01*
X82197Y78535D01*
X83013Y77990D01*
X83976Y77798D01*
X84939Y77990D01*
X85756Y78535D01*
X87381Y80160D01*
X96727D01*
X96887Y79352D01*
X97433Y78535D01*
X98249Y77990D01*
X99213Y77798D01*
X108268D01*
X109231Y77990D01*
X110047Y78535D01*
X114822Y83310D01*
X134371D01*
Y79877D01*
X100187Y45693D01*
X90945D01*
X90225Y45598D01*
X89555Y45321D01*
X88979Y44879D01*
X88538Y44303D01*
X88260Y43633D01*
X88165Y42913D01*
X88260Y42194D01*
X88538Y41524D01*
X88979Y40948D01*
X89555Y40506D01*
X90225Y40228D01*
X90945Y40134D01*
X101339D01*
X102058Y40228D01*
X102728Y40506D01*
X103304Y40948D01*
X138302Y75946D01*
X141976D01*
X142591Y76068D01*
X143112Y76416D01*
X143460Y76937D01*
X143582Y77551D01*
Y83310D01*
X145669D01*
X146632Y83501D01*
X147449Y84047D01*
X167986Y104584D01*
X168448Y104393D01*
Y72146D01*
X168556Y71601D01*
Y57691D01*
X159901Y49035D01*
X159138Y48935D01*
X158372Y48617D01*
X157714Y48112D01*
X155147Y45545D01*
X155039Y45559D01*
X153845Y45402D01*
X152732Y44941D01*
X151777Y44208D01*
X151043Y43252D01*
X150582Y42139D01*
X150425Y40945D01*
X150582Y39751D01*
X151043Y38638D01*
X151777Y37682D01*
X152732Y36949D01*
X153845Y36488D01*
X155039Y36331D01*
X156234Y36488D01*
X157346Y36949D01*
X158302Y37682D01*
X159035Y38638D01*
X159496Y39751D01*
X159654Y40945D01*
X159640Y41052D01*
X160011Y41423D01*
X160459Y41202D01*
X160425Y40945D01*
X160582Y39751D01*
X161043Y38638D01*
X161777Y37682D01*
X162732Y36949D01*
X163845Y36488D01*
X165039Y36331D01*
X166234Y36488D01*
X167347Y36949D01*
X168302Y37682D01*
X169035Y38638D01*
X169496Y39751D01*
X169654Y40945D01*
X169640Y41052D01*
X170010Y41423D01*
X170459Y41202D01*
X170425Y40945D01*
X170582Y39751D01*
X171043Y38638D01*
X171777Y37682D01*
X172732Y36949D01*
X173845Y36488D01*
X175039Y36331D01*
X176234Y36488D01*
X177347Y36949D01*
X178302Y37682D01*
X179035Y38638D01*
X179496Y39751D01*
X179654Y40945D01*
X179620Y41202D01*
X180068Y41423D01*
X180434Y41058D01*
Y37945D01*
X180556Y37330D01*
X180904Y36810D01*
X181425Y36461D01*
X182039Y36339D01*
X188039D01*
X188654Y36461D01*
X189175Y36810D01*
X189523Y37330D01*
X189645Y37945D01*
Y43945D01*
X189523Y44559D01*
X189175Y45080D01*
X188654Y45428D01*
X188039Y45551D01*
X184926D01*
X182606Y47871D01*
Y48031D01*
X182498Y48854D01*
X182180Y49620D01*
X181946Y49925D01*
Y52362D01*
X181754Y53325D01*
X181209Y54142D01*
X179682Y55668D01*
Y117930D01*
X180161Y118075D01*
X180209Y118004D01*
X180802Y117607D01*
X182177Y116232D01*
X182993Y115687D01*
X183957Y115495D01*
X195669D01*
X196023Y115565D01*
X196400Y115256D01*
X196592Y114293D01*
X197138Y113476D01*
X197559Y113194D01*
Y112593D01*
X197138Y112311D01*
X196592Y111495D01*
X196400Y110531D01*
Y103150D01*
X196592Y102187D01*
X197138Y101370D01*
X218693Y79815D01*
X219509Y79269D01*
X220472Y79078D01*
X231988D01*
X232951Y79269D01*
X233768Y79815D01*
X234314Y80631D01*
X234505Y81595D01*
X234314Y82558D01*
X233768Y83374D01*
X232951Y83920D01*
X231988Y84111D01*
X221515D01*
X201434Y104192D01*
Y108015D01*
X201575D01*
X202538Y108206D01*
X203355Y108752D01*
X208276Y113673D01*
X208821Y114490D01*
X209013Y115453D01*
Y143052D01*
X213197Y147236D01*
X213743Y148053D01*
X213934Y149016D01*
X213743Y149979D01*
X213197Y150795D01*
X212381Y151341D01*
X211417Y151533D01*
D02*
G37*
G36*
X110433Y140181D02*
X109714Y140086D01*
X109043Y139809D01*
X108467Y139367D01*
X108026Y138791D01*
X107748Y138121D01*
X107653Y137402D01*
Y134055D01*
X107748Y133336D01*
X108026Y132665D01*
X108467Y132090D01*
X115921Y124636D01*
Y118110D01*
X116016Y117391D01*
X116294Y116720D01*
X116735Y116145D01*
X117311Y115703D01*
X117981Y115425D01*
X118701Y115331D01*
X119420Y115425D01*
X120091Y115703D01*
X120666Y116145D01*
X121108Y116720D01*
X121386Y117391D01*
X121481Y118110D01*
Y125787D01*
X121386Y126507D01*
X121108Y127177D01*
X120666Y127753D01*
X113213Y135206D01*
Y137402D01*
X113118Y138121D01*
X112840Y138791D01*
X112399Y139367D01*
X111823Y139809D01*
X111153Y140086D01*
X110433Y140181D01*
D02*
G37*
G36*
X135039Y45559D02*
X133845Y45402D01*
X132732Y44941D01*
X131777Y44208D01*
X131043Y43252D01*
X130582Y42139D01*
X130425Y40945D01*
X130582Y39751D01*
X131043Y38638D01*
X131777Y37682D01*
X132732Y36949D01*
X133845Y36488D01*
X135039Y36331D01*
X136234Y36488D01*
X137346Y36949D01*
X138302Y37682D01*
X139035Y38638D01*
X139496Y39751D01*
X139654Y40945D01*
X139496Y42139D01*
X139035Y43252D01*
X138302Y44208D01*
X137346Y44941D01*
X136234Y45402D01*
X135039Y45559D01*
D02*
G37*
G36*
X145039D02*
X143845Y45402D01*
X142732Y44941D01*
X141777Y44208D01*
X141043Y43252D01*
X140582Y42139D01*
X140425Y40945D01*
X140582Y39751D01*
X141043Y38638D01*
X141777Y37682D01*
X142732Y36949D01*
X143845Y36488D01*
X145039Y36331D01*
X146234Y36488D01*
X147346Y36949D01*
X148302Y37682D01*
X149035Y38638D01*
X149496Y39751D01*
X149654Y40945D01*
X149496Y42139D01*
X149035Y43252D01*
X148302Y44208D01*
X147346Y44941D01*
X146234Y45402D01*
X145039Y45559D01*
D02*
G37*
G36*
X297933Y45208D02*
X292028D01*
X291413Y45086D01*
X290892Y44738D01*
X290544Y44217D01*
X290422Y43602D01*
Y37697D01*
X290544Y37082D01*
X290892Y36562D01*
X291413Y36213D01*
X292028Y36091D01*
X297933D01*
X298548Y36213D01*
X299068Y36562D01*
X299416Y37082D01*
X299539Y37697D01*
Y43602D01*
X299416Y44217D01*
X299068Y44738D01*
X298548Y45086D01*
X297933Y45208D01*
D02*
G37*
G36*
X125039Y45559D02*
X123845Y45402D01*
X122732Y44941D01*
X121777Y44208D01*
X121043Y43252D01*
X120582Y42139D01*
X120425Y40945D01*
X120582Y39751D01*
X121043Y38638D01*
X121777Y37682D01*
X122732Y36949D01*
X123845Y36488D01*
X125039Y36331D01*
X126234Y36488D01*
X127347Y36949D01*
X128302Y37682D01*
X129035Y38638D01*
X129496Y39751D01*
X129654Y40945D01*
X129496Y42139D01*
X129035Y43252D01*
X128302Y44208D01*
X127347Y44941D01*
X126234Y45402D01*
X125039Y45559D01*
D02*
G37*
G36*
X328740Y39431D02*
X328662Y39416D01*
X328583Y39424D01*
X327348Y39302D01*
X327197Y39256D01*
X327039Y39241D01*
X325852Y38880D01*
X325712Y38806D01*
X325561Y38760D01*
X324467Y38175D01*
X324344Y38075D01*
X324205Y38000D01*
X323246Y37213D01*
X323145Y37091D01*
X323023Y36990D01*
X322236Y36031D01*
X322162Y35892D01*
X322061Y35770D01*
X321476Y34675D01*
X321430Y34524D01*
X321356Y34384D01*
X320996Y33197D01*
X320980Y33040D01*
X320934Y32888D01*
X320813Y31653D01*
X320828Y31496D01*
X320813Y31339D01*
X320934Y30104D01*
X320980Y29952D01*
X320996Y29795D01*
X321356Y28608D01*
X321430Y28468D01*
X321476Y28317D01*
X322061Y27223D01*
X322162Y27100D01*
X322236Y26961D01*
X323023Y26002D01*
X323145Y25901D01*
X323246Y25779D01*
X324205Y24992D01*
X324344Y24917D01*
X324467Y24817D01*
X325561Y24232D01*
X325712Y24186D01*
X325852Y24112D01*
X327039Y23752D01*
X327197Y23736D01*
X327348Y23690D01*
X328583Y23569D01*
X328662Y23576D01*
X328740Y23561D01*
X328818Y23576D01*
X328898Y23569D01*
X330132Y23690D01*
X330284Y23736D01*
X330441Y23752D01*
X331628Y24112D01*
X331768Y24186D01*
X331919Y24232D01*
X333014Y24817D01*
X333136Y24917D01*
X333275Y24992D01*
X334234Y25779D01*
X334335Y25901D01*
X334457Y26002D01*
X335244Y26961D01*
X335319Y27100D01*
X335419Y27223D01*
X336004Y28317D01*
X336050Y28468D01*
X336124Y28608D01*
X336485Y29795D01*
X336500Y29952D01*
X336546Y30104D01*
X336668Y31339D01*
X336652Y31496D01*
X336668Y31653D01*
X336546Y32888D01*
X336500Y33040D01*
X336485Y33197D01*
X336124Y34384D01*
X336050Y34524D01*
X336004Y34675D01*
X335419Y35770D01*
X335319Y35892D01*
X335244Y36031D01*
X334457Y36990D01*
X334335Y37091D01*
X334234Y37213D01*
X333275Y38000D01*
X333136Y38075D01*
X333014Y38175D01*
X331919Y38760D01*
X331768Y38806D01*
X331628Y38880D01*
X330441Y39241D01*
X330284Y39256D01*
X330132Y39302D01*
X328898Y39424D01*
X328818Y39416D01*
X328740Y39431D01*
D02*
G37*
G36*
X25000Y62432D02*
X19094D01*
X18480Y62310D01*
X17959Y61962D01*
X17611Y61441D01*
X17489Y60827D01*
Y54921D01*
X17611Y54307D01*
X17959Y53786D01*
X18480Y53438D01*
X19094Y53316D01*
X25000D01*
X25614Y53438D01*
X26135Y53786D01*
X26483Y54307D01*
X26606Y54921D01*
Y60827D01*
X26483Y61441D01*
X26135Y61962D01*
X25614Y62310D01*
X25000Y62432D01*
D02*
G37*
G36*
X22047Y78189D02*
X20865Y78033D01*
X19764Y77577D01*
X18818Y76851D01*
X18092Y75905D01*
X17636Y74804D01*
X17481Y73622D01*
X17636Y72440D01*
X18092Y71339D01*
X18818Y70393D01*
X19764Y69667D01*
X20865Y69211D01*
X22047Y69055D01*
X23229Y69211D01*
X24330Y69667D01*
X25276Y70393D01*
X26002Y71339D01*
X26458Y72440D01*
X26614Y73622D01*
X26458Y74804D01*
X26002Y75905D01*
X25276Y76851D01*
X24330Y77577D01*
X23229Y78033D01*
X22047Y78189D01*
D02*
G37*
G36*
X25591Y39825D02*
X25512Y39810D01*
X25433Y39817D01*
X24198Y39696D01*
X24047Y39650D01*
X23890Y39634D01*
X22702Y39274D01*
X22563Y39200D01*
X22411Y39154D01*
X21317Y38569D01*
X21195Y38469D01*
X21055Y38394D01*
X20096Y37607D01*
X19996Y37484D01*
X19874Y37384D01*
X19086Y36425D01*
X19012Y36285D01*
X18912Y36163D01*
X18327Y35069D01*
X18281Y34918D01*
X18206Y34778D01*
X17846Y33591D01*
X17831Y33433D01*
X17785Y33282D01*
X17663Y32047D01*
X17678Y31890D01*
X17663Y31732D01*
X17785Y30498D01*
X17831Y30346D01*
X17846Y30189D01*
X18206Y29001D01*
X18281Y28862D01*
X18327Y28711D01*
X18912Y27616D01*
X19012Y27494D01*
X19086Y27355D01*
X19874Y26395D01*
X19996Y26295D01*
X20096Y26173D01*
X21055Y25386D01*
X21195Y25311D01*
X21317Y25211D01*
X22411Y24626D01*
X22563Y24580D01*
X22702Y24505D01*
X23890Y24145D01*
X24047Y24130D01*
X24198Y24084D01*
X25433Y23962D01*
X25512Y23970D01*
X25591Y23954D01*
X25669Y23970D01*
X25748Y23962D01*
X26983Y24084D01*
X27134Y24130D01*
X27292Y24145D01*
X28479Y24505D01*
X28618Y24580D01*
X28770Y24626D01*
X29864Y25211D01*
X29986Y25311D01*
X30126Y25386D01*
X31085Y26173D01*
X31185Y26295D01*
X31308Y26395D01*
X32095Y27355D01*
X32169Y27494D01*
X32269Y27616D01*
X32855Y28711D01*
X32900Y28862D01*
X32975Y29001D01*
X33335Y30189D01*
X33351Y30346D01*
X33397Y30498D01*
X33518Y31732D01*
X33503Y31890D01*
X33518Y32047D01*
X33397Y33282D01*
X33351Y33433D01*
X33335Y33591D01*
X32975Y34778D01*
X32900Y34918D01*
X32855Y35069D01*
X32269Y36163D01*
X32169Y36285D01*
X32095Y36425D01*
X31308Y37384D01*
X31185Y37484D01*
X31085Y37607D01*
X30126Y38394D01*
X29986Y38469D01*
X29864Y38569D01*
X28770Y39154D01*
X28618Y39200D01*
X28479Y39274D01*
X27292Y39634D01*
X27134Y39650D01*
X26983Y39696D01*
X25748Y39817D01*
X25669Y39810D01*
X25591Y39825D01*
D02*
G37*
G36*
X220276Y141592D02*
X215748D01*
X214785Y141400D01*
X213968Y140855D01*
X213423Y140038D01*
X213231Y139075D01*
X213423Y138112D01*
X213968Y137295D01*
X214785Y136749D01*
X215748Y136558D01*
X219233D01*
X244874Y110917D01*
X245690Y110372D01*
X246654Y110180D01*
X247617Y110372D01*
X248433Y110917D01*
X248492Y111005D01*
X248992Y110853D01*
Y50197D01*
X249087Y49477D01*
X249364Y48807D01*
X249806Y48231D01*
X250382Y47790D01*
X251052Y47512D01*
X251772Y47417D01*
X252491Y47512D01*
X253162Y47790D01*
X253737Y48231D01*
X254179Y48807D01*
X254457Y49477D01*
X254551Y50197D01*
Y127884D01*
X262005Y135338D01*
X262447Y135913D01*
X262724Y136584D01*
X262819Y137303D01*
X262724Y138023D01*
X262447Y138693D01*
X262005Y139269D01*
X261429Y139710D01*
X260759Y139988D01*
X260039Y140083D01*
X259320Y139988D01*
X258649Y139710D01*
X258074Y139269D01*
X249806Y131001D01*
X249364Y130425D01*
X249087Y129755D01*
X248992Y129035D01*
Y114540D01*
X248492Y114389D01*
X248433Y114477D01*
X222055Y140855D01*
X221239Y141400D01*
X220276Y141592D01*
D02*
G37*
G36*
X22047Y223858D02*
X20865Y223702D01*
X19764Y223246D01*
X18818Y222520D01*
X18092Y221575D01*
X17636Y220473D01*
X17481Y219291D01*
X17636Y218109D01*
X18092Y217008D01*
X18573Y216382D01*
X18518Y216070D01*
X18393Y215795D01*
X17959Y215505D01*
X17611Y214984D01*
X17489Y214370D01*
Y208465D01*
X17611Y207850D01*
X17959Y207329D01*
X18480Y206981D01*
X19094Y206859D01*
X25000D01*
X25614Y206981D01*
X26135Y207329D01*
X26483Y207850D01*
X26606Y208465D01*
Y214370D01*
X26483Y214984D01*
X26135Y215505D01*
X25702Y215795D01*
X25576Y216070D01*
X25521Y216382D01*
X26002Y217008D01*
X26458Y218109D01*
X26614Y219291D01*
X26458Y220473D01*
X26002Y221575D01*
X25276Y222520D01*
X24330Y223246D01*
X23229Y223702D01*
X22047Y223858D01*
D02*
G37*
G36*
X295276Y255149D02*
X294351Y255027D01*
X293489Y254670D01*
X292748Y254102D01*
X272670Y234023D01*
X272102Y233283D01*
X271745Y232421D01*
X271623Y231496D01*
X271745Y230571D01*
X272102Y229709D01*
X272670Y228969D01*
X273410Y228401D01*
X274272Y228044D01*
X275197Y227922D01*
X276122Y228044D01*
X276984Y228401D01*
X277724Y228969D01*
X296756Y248001D01*
X300886D01*
X301811Y248123D01*
X302673Y248480D01*
X303413Y249048D01*
X303981Y249788D01*
X304338Y250650D01*
X304460Y251575D01*
X304338Y252500D01*
X303981Y253362D01*
X303413Y254102D01*
X302673Y254670D01*
X301811Y255027D01*
X300886Y255149D01*
X295276D01*
X295276Y255149D01*
D02*
G37*
G36*
X165039Y203040D02*
X163845Y202882D01*
X162732Y202421D01*
X161777Y201688D01*
X161043Y200732D01*
X160582Y199619D01*
X160425Y198425D01*
X160582Y197231D01*
X161043Y196118D01*
X161777Y195162D01*
X162732Y194429D01*
X163845Y193968D01*
X165039Y193811D01*
X166234Y193968D01*
X167347Y194429D01*
X168302Y195162D01*
X169035Y196118D01*
X169496Y197231D01*
X169654Y198425D01*
X169496Y199619D01*
X169035Y200732D01*
X168302Y201688D01*
X167347Y202421D01*
X166234Y202882D01*
X165039Y203040D01*
D02*
G37*
G36*
X175039D02*
X173845Y202882D01*
X172732Y202421D01*
X171777Y201688D01*
X171043Y200732D01*
X170582Y199619D01*
X170425Y198425D01*
X170582Y197231D01*
X171043Y196118D01*
X171777Y195162D01*
X172732Y194429D01*
X173845Y193968D01*
X175039Y193811D01*
X176234Y193968D01*
X177347Y194429D01*
X178302Y195162D01*
X179035Y196118D01*
X179496Y197231D01*
X179654Y198425D01*
X179496Y199619D01*
X179035Y200732D01*
X178302Y201688D01*
X177347Y202421D01*
X176234Y202882D01*
X175039Y203040D01*
D02*
G37*
G36*
X206398Y250024D02*
X188976D01*
X188257Y249929D01*
X187586Y249651D01*
X187011Y249210D01*
X171880Y234079D01*
X153445D01*
X152726Y233984D01*
X152055Y233706D01*
X151479Y233265D01*
X151038Y232689D01*
X150760Y232019D01*
X150665Y231299D01*
X150760Y230580D01*
X151038Y229909D01*
X151479Y229334D01*
X152055Y228892D01*
X152726Y228614D01*
X153445Y228520D01*
X173031D01*
X173751Y228614D01*
X174421Y228892D01*
X174997Y229334D01*
X190128Y244464D01*
X206398D01*
X207117Y244559D01*
X207787Y244837D01*
X208363Y245279D01*
X208805Y245854D01*
X209083Y246525D01*
X209177Y247244D01*
X209083Y247964D01*
X208805Y248634D01*
X208363Y249210D01*
X207787Y249651D01*
X207117Y249929D01*
X206398Y250024D01*
D02*
G37*
G36*
X25591Y307148D02*
X25512Y307132D01*
X25433Y307140D01*
X24198Y307019D01*
X24047Y306973D01*
X23890Y306957D01*
X22702Y306597D01*
X22563Y306522D01*
X22411Y306476D01*
X21317Y305892D01*
X21195Y305791D01*
X21055Y305717D01*
X20096Y304930D01*
X19996Y304807D01*
X19874Y304707D01*
X19086Y303748D01*
X19012Y303608D01*
X18912Y303486D01*
X18327Y302392D01*
X18281Y302240D01*
X18206Y302101D01*
X17846Y300914D01*
X17831Y300756D01*
X17785Y300605D01*
X17663Y299370D01*
X17678Y299213D01*
X17663Y299055D01*
X17785Y297820D01*
X17831Y297669D01*
X17846Y297512D01*
X18206Y296324D01*
X18281Y296185D01*
X18327Y296033D01*
X18912Y294939D01*
X19012Y294817D01*
X19086Y294677D01*
X19874Y293718D01*
X19996Y293618D01*
X20096Y293496D01*
X21055Y292708D01*
X21195Y292634D01*
X21317Y292534D01*
X22411Y291949D01*
X22563Y291903D01*
X22702Y291828D01*
X23890Y291468D01*
X24047Y291453D01*
X24198Y291407D01*
X25433Y291285D01*
X25512Y291293D01*
X25591Y291277D01*
X25669Y291293D01*
X25748Y291285D01*
X26983Y291407D01*
X27134Y291453D01*
X27292Y291468D01*
X28479Y291828D01*
X28618Y291903D01*
X28770Y291949D01*
X29864Y292534D01*
X29986Y292634D01*
X30126Y292708D01*
X31085Y293496D01*
X31185Y293618D01*
X31308Y293718D01*
X32095Y294677D01*
X32169Y294817D01*
X32269Y294939D01*
X32855Y296033D01*
X32900Y296185D01*
X32975Y296324D01*
X33335Y297512D01*
X33351Y297669D01*
X33397Y297820D01*
X33518Y299055D01*
X33503Y299213D01*
X33518Y299370D01*
X33397Y300605D01*
X33351Y300756D01*
X33335Y300914D01*
X32975Y302101D01*
X32900Y302240D01*
X32855Y302392D01*
X32269Y303486D01*
X32169Y303608D01*
X32095Y303748D01*
X31308Y304707D01*
X31185Y304807D01*
X31085Y304930D01*
X30126Y305717D01*
X29986Y305791D01*
X29864Y305892D01*
X28770Y306476D01*
X28618Y306522D01*
X28479Y306597D01*
X27292Y306957D01*
X27134Y306973D01*
X26983Y307019D01*
X25748Y307140D01*
X25669Y307132D01*
X25591Y307148D01*
D02*
G37*
G36*
X328740D02*
X328662Y307132D01*
X328583Y307140D01*
X327348Y307019D01*
X327197Y306973D01*
X327039Y306957D01*
X325852Y306597D01*
X325712Y306522D01*
X325561Y306476D01*
X324467Y305892D01*
X324344Y305791D01*
X324205Y305717D01*
X323246Y304930D01*
X323145Y304807D01*
X323023Y304707D01*
X322236Y303748D01*
X322162Y303608D01*
X322061Y303486D01*
X321476Y302392D01*
X321430Y302240D01*
X321356Y302101D01*
X320996Y300914D01*
X320980Y300756D01*
X320934Y300605D01*
X320813Y299370D01*
X320828Y299213D01*
X320813Y299055D01*
X320934Y297820D01*
X320980Y297669D01*
X320996Y297512D01*
X321356Y296324D01*
X321430Y296185D01*
X321476Y296033D01*
X322061Y294939D01*
X322162Y294817D01*
X322236Y294677D01*
X323023Y293718D01*
X323145Y293618D01*
X323246Y293496D01*
X324205Y292708D01*
X324344Y292634D01*
X324467Y292534D01*
X325561Y291949D01*
X325712Y291903D01*
X325852Y291828D01*
X327039Y291468D01*
X327197Y291453D01*
X327348Y291407D01*
X328583Y291285D01*
X328662Y291293D01*
X328740Y291277D01*
X328818Y291293D01*
X328898Y291285D01*
X330132Y291407D01*
X330284Y291453D01*
X330441Y291468D01*
X331628Y291828D01*
X331768Y291903D01*
X331919Y291949D01*
X333014Y292534D01*
X333136Y292634D01*
X333275Y292708D01*
X334234Y293496D01*
X334335Y293618D01*
X334457Y293718D01*
X335244Y294677D01*
X335319Y294817D01*
X335419Y294939D01*
X336004Y296033D01*
X336050Y296185D01*
X336124Y296324D01*
X336485Y297512D01*
X336500Y297669D01*
X336546Y297820D01*
X336668Y299055D01*
X336652Y299213D01*
X336668Y299370D01*
X336546Y300605D01*
X336500Y300756D01*
X336485Y300914D01*
X336124Y302101D01*
X336050Y302240D01*
X336004Y302392D01*
X335419Y303486D01*
X335319Y303608D01*
X335244Y303748D01*
X334457Y304707D01*
X334335Y304807D01*
X334234Y304930D01*
X333275Y305717D01*
X333136Y305791D01*
X333014Y305892D01*
X331919Y306476D01*
X331768Y306522D01*
X331628Y306597D01*
X330441Y306957D01*
X330284Y306973D01*
X330132Y307019D01*
X328898Y307140D01*
X328818Y307132D01*
X328740Y307148D01*
D02*
G37*
G36*
X22047Y267952D02*
X20865Y267797D01*
X19764Y267341D01*
X18818Y266615D01*
X18092Y265669D01*
X17636Y264568D01*
X17481Y263386D01*
X17636Y262204D01*
X18092Y261103D01*
X18573Y260476D01*
X18518Y260164D01*
X18393Y259890D01*
X17959Y259600D01*
X17611Y259079D01*
X17489Y258465D01*
Y252559D01*
X17611Y251945D01*
X17959Y251424D01*
X18480Y251076D01*
X19094Y250953D01*
X25000D01*
X25614Y251076D01*
X26135Y251424D01*
X26483Y251945D01*
X26606Y252559D01*
Y258465D01*
X26483Y259079D01*
X26135Y259600D01*
X25702Y259890D01*
X25576Y260164D01*
X25521Y260476D01*
X26002Y261103D01*
X26458Y262204D01*
X26614Y263386D01*
X26458Y264568D01*
X26002Y265669D01*
X25276Y266615D01*
X24330Y267341D01*
X23229Y267797D01*
X22047Y267952D01*
D02*
G37*
G36*
X190059Y279553D02*
X189288Y279451D01*
X188570Y279154D01*
X187953Y278681D01*
X187480Y278064D01*
X187182Y277346D01*
X187081Y276575D01*
Y266732D01*
X187182Y265962D01*
X187480Y265243D01*
X187953Y264626D01*
X188570Y264153D01*
X189288Y263856D01*
X190059Y263754D01*
X190830Y263856D01*
X191548Y264153D01*
X192165Y264626D01*
X192638Y265243D01*
X192936Y265962D01*
X193037Y266732D01*
Y276575D01*
X192936Y277346D01*
X192638Y278064D01*
X192165Y278681D01*
X191548Y279154D01*
X190830Y279451D01*
X190059Y279553D01*
D02*
G37*
G36*
X155039Y203040D02*
X153845Y202882D01*
X152732Y202421D01*
X151777Y201688D01*
X151043Y200732D01*
X150582Y199619D01*
X150425Y198425D01*
X150582Y197231D01*
X151043Y196118D01*
X151777Y195162D01*
X152732Y194429D01*
X153845Y193968D01*
X155039Y193811D01*
X156234Y193968D01*
X157346Y194429D01*
X158302Y195162D01*
X159035Y196118D01*
X159496Y197231D01*
X159654Y198425D01*
X159496Y199619D01*
X159035Y200732D01*
X158302Y201688D01*
X157346Y202421D01*
X156234Y202882D01*
X155039Y203040D01*
D02*
G37*
G36*
X138976Y175008D02*
X137782Y174851D01*
X136669Y174390D01*
X135714Y173656D01*
X134980Y172701D01*
X134519Y171588D01*
X134362Y170394D01*
X134519Y169199D01*
X134980Y168087D01*
X135714Y167131D01*
X136669Y166398D01*
X137782Y165937D01*
X138976Y165779D01*
X140171Y165937D01*
X141284Y166398D01*
X142239Y167131D01*
X142973Y168087D01*
X143433Y169199D01*
X143591Y170394D01*
X143433Y171588D01*
X142973Y172701D01*
X142239Y173656D01*
X141284Y174390D01*
X140171Y174851D01*
X138976Y175008D01*
D02*
G37*
G36*
X141976Y184999D02*
X135976D01*
X135362Y184877D01*
X134841Y184529D01*
X134493Y184008D01*
X134371Y183394D01*
Y177394D01*
X134493Y176779D01*
X134841Y176258D01*
X135362Y175910D01*
X135976Y175788D01*
X141976D01*
X142591Y175910D01*
X143112Y176258D01*
X143460Y176779D01*
X143582Y177394D01*
Y183394D01*
X143460Y184008D01*
X143112Y184529D01*
X142591Y184877D01*
X141976Y184999D01*
D02*
G37*
G36*
X197244Y202685D02*
X196422Y202576D01*
X195656Y202259D01*
X194998Y201754D01*
X194493Y201096D01*
X194176Y200330D01*
X194067Y199508D01*
X194176Y198686D01*
X194493Y197919D01*
X194998Y197262D01*
X202335Y189924D01*
Y178087D01*
X177818Y153570D01*
X142305D01*
X142239Y153656D01*
X141284Y154390D01*
X140171Y154851D01*
X138976Y155008D01*
X137782Y154851D01*
X136669Y154390D01*
X135714Y153656D01*
X134980Y152701D01*
X134519Y151588D01*
X134362Y150394D01*
X134519Y149199D01*
X134980Y148087D01*
X135714Y147131D01*
X136295Y146685D01*
Y133268D01*
X136390Y132548D01*
X136668Y131878D01*
X137109Y131302D01*
X155094Y113317D01*
Y109843D01*
X155189Y109123D01*
X155467Y108453D01*
X155909Y107877D01*
X156484Y107435D01*
X157155Y107158D01*
X157874Y107063D01*
X158593Y107158D01*
X159264Y107435D01*
X159839Y107877D01*
X160281Y108453D01*
X160559Y109123D01*
X160654Y109843D01*
Y114469D01*
X160559Y115188D01*
X160281Y115858D01*
X159839Y116434D01*
X141855Y134419D01*
Y146836D01*
X142239Y147131D01*
X142305Y147217D01*
X179134D01*
X179956Y147325D01*
X180722Y147643D01*
X181380Y148147D01*
X207758Y174525D01*
X208263Y175183D01*
X208580Y175949D01*
X208689Y176772D01*
Y191240D01*
X208580Y192062D01*
X208263Y192829D01*
X207758Y193486D01*
X199490Y201754D01*
X198832Y202259D01*
X198066Y202576D01*
X197244Y202685D01*
D02*
G37*
G36*
X22047Y177795D02*
X20865Y177639D01*
X19764Y177183D01*
X18818Y176457D01*
X18092Y175512D01*
X17636Y174410D01*
X17481Y173228D01*
X17636Y172046D01*
X18092Y170945D01*
X18818Y169999D01*
X19415Y169541D01*
Y169041D01*
X18818Y168583D01*
X18092Y167638D01*
X17636Y166536D01*
X17481Y165354D01*
X17636Y164172D01*
X18092Y163071D01*
X18818Y162125D01*
X19764Y161399D01*
X20865Y160943D01*
X22047Y160788D01*
X23229Y160943D01*
X24330Y161399D01*
X25276Y162125D01*
X26002Y163071D01*
X26458Y164172D01*
X26614Y165354D01*
X26458Y166536D01*
X26002Y167638D01*
X25276Y168583D01*
X24680Y169041D01*
Y169541D01*
X25276Y169999D01*
X26002Y170945D01*
X26458Y172046D01*
X26614Y173228D01*
X26458Y174410D01*
X26002Y175512D01*
X25276Y176457D01*
X24330Y177183D01*
X23229Y177639D01*
X22047Y177795D01*
D02*
G37*
G36*
X223228Y211054D02*
X194095D01*
X193169Y210932D01*
X192307Y210575D01*
X191567Y210007D01*
X184591Y203031D01*
X182039D01*
X181425Y202909D01*
X180904Y202561D01*
X180556Y202040D01*
X180434Y201425D01*
Y195425D01*
X180556Y194811D01*
X180904Y194290D01*
X181425Y193942D01*
X182039Y193820D01*
X188039D01*
X188654Y193942D01*
X189175Y194290D01*
X189523Y194811D01*
X189645Y195425D01*
Y197977D01*
X195575Y203906D01*
X221748D01*
X233300Y192355D01*
X234040Y191787D01*
X234902Y191430D01*
X235827Y191308D01*
X236574Y191406D01*
X265086D01*
X265371Y190988D01*
X265323Y190748D01*
Y186221D01*
X265446Y185606D01*
X265794Y185085D01*
X266315Y184737D01*
X266929Y184615D01*
X272244D01*
X272859Y184737D01*
X273379Y185085D01*
X273727Y185606D01*
X273850Y186221D01*
Y190748D01*
X273843Y190781D01*
X274168Y191268D01*
X274291Y191882D01*
Y197882D01*
X274168Y198496D01*
X273820Y199017D01*
X273300Y199365D01*
X272685Y199488D01*
X266685D01*
X266071Y199365D01*
X265550Y199017D01*
X265240Y198554D01*
X237209D01*
X225756Y210007D01*
X225015Y210575D01*
X224153Y210932D01*
X223228Y211054D01*
D02*
G37*
G36*
X135039Y203040D02*
X133845Y202882D01*
X132732Y202421D01*
X131777Y201688D01*
X131043Y200732D01*
X130582Y199619D01*
X130425Y198425D01*
X130582Y197231D01*
X131043Y196118D01*
X131777Y195162D01*
X132732Y194429D01*
X133845Y193968D01*
X135039Y193811D01*
X136234Y193968D01*
X137346Y194429D01*
X138302Y195162D01*
X139035Y196118D01*
X139496Y197231D01*
X139654Y198425D01*
X139496Y199619D01*
X139035Y200732D01*
X138302Y201688D01*
X137346Y202421D01*
X136234Y202882D01*
X135039Y203040D01*
D02*
G37*
G36*
X145039D02*
X143845Y202882D01*
X142732Y202421D01*
X141777Y201688D01*
X141043Y200732D01*
X140582Y199619D01*
X140425Y198425D01*
X140582Y197231D01*
X141043Y196118D01*
X141777Y195162D01*
X142732Y194429D01*
X143845Y193968D01*
X145039Y193811D01*
X146234Y193968D01*
X147346Y194429D01*
X148302Y195162D01*
X149035Y196118D01*
X149496Y197231D01*
X149654Y198425D01*
X149496Y199619D01*
X149035Y200732D01*
X148302Y201688D01*
X147346Y202421D01*
X146234Y202882D01*
X145039Y203040D01*
D02*
G37*
G36*
X304449Y205346D02*
X294606D01*
X293992Y205224D01*
X293471Y204875D01*
X293123Y204355D01*
X293001Y203740D01*
Y193898D01*
X293123Y193283D01*
X293471Y192762D01*
X293992Y192414D01*
X294606Y192292D01*
X304449D01*
X305063Y192414D01*
X305584Y192762D01*
X305932Y193283D01*
X306054Y193898D01*
Y203740D01*
X305932Y204355D01*
X305584Y204875D01*
X305063Y205224D01*
X304449Y205346D01*
D02*
G37*
G36*
X334449D02*
X324606D01*
X323992Y205224D01*
X323471Y204875D01*
X323123Y204355D01*
X323001Y203740D01*
Y193898D01*
X323123Y193283D01*
X323471Y192762D01*
X323992Y192414D01*
X324606Y192292D01*
X334449D01*
X335063Y192414D01*
X335584Y192762D01*
X335932Y193283D01*
X336054Y193898D01*
Y203740D01*
X335932Y204355D01*
X335584Y204875D01*
X335063Y205224D01*
X334449Y205346D01*
D02*
G37*
%LPD*%
D15*
X269587Y181595D02*
D03*
Y188484D02*
D03*
D41*
X235039Y259842D02*
D03*
X288976Y258661D02*
D03*
X277165D02*
D03*
X290945Y225433D02*
D03*
X277008D02*
D03*
X301181Y145669D02*
D03*
X294390Y95177D02*
D03*
X221457Y192028D02*
D03*
X214567Y165157D02*
D03*
X118701Y118110D02*
D03*
Y133071D02*
D03*
X66535Y84744D02*
D03*
X106299Y113091D02*
D03*
X259941Y122736D02*
D03*
X281102Y126870D02*
D03*
X277165Y140945D02*
D03*
X260039Y137303D02*
D03*
X198721Y217913D02*
D03*
X227067Y149016D02*
D03*
X206398Y247244D02*
D03*
X92028Y266933D02*
D03*
X96752Y227658D02*
D03*
X54429Y269685D02*
D03*
X54528Y258661D02*
D03*
X62835Y218150D02*
D03*
X75157D02*
D03*
X114567Y227658D02*
D03*
X154232Y253150D02*
D03*
X110236Y170374D02*
D03*
X272146Y76772D02*
D03*
X39665Y213779D02*
D03*
X49409Y276083D02*
D03*
X119587Y73622D02*
D03*
X231988Y81595D02*
D03*
X211417Y149016D02*
D03*
X195669Y118012D02*
D03*
X198917Y115256D02*
D03*
X197244Y199508D02*
D03*
X205512Y191240D02*
D03*
X316535Y59744D02*
D03*
X251772Y50197D02*
D03*
X215748Y139075D02*
D03*
X246654Y112697D02*
D03*
X320276Y78937D02*
D03*
X198819Y85236D02*
D03*
X150000Y117323D02*
D03*
X188386Y103543D02*
D03*
X198917Y110531D02*
D03*
X165551Y120965D02*
D03*
Y118012D02*
D03*
X184646Y130512D02*
D03*
X110236Y180315D02*
D03*
X165846Y253150D02*
D03*
X114567Y247047D02*
D03*
Y253150D02*
D03*
X90945Y42913D02*
D03*
X157874Y109843D02*
D03*
X106299Y90158D02*
D03*
X153445Y231299D02*
D03*
X190059Y266732D02*
D03*
Y276575D02*
D03*
X96752Y237598D02*
D03*
X75335Y247441D02*
D03*
X63287D02*
D03*
X79429Y237598D02*
D03*
X91240D02*
D03*
X129429Y247047D02*
D03*
X96752Y247441D02*
D03*
X99213Y80315D02*
D03*
X91339Y88976D02*
D03*
X83976Y86378D02*
D03*
X78583Y92126D02*
D03*
X83976Y111024D02*
D03*
X78583Y105354D02*
D03*
X83976Y80315D02*
D03*
X186909Y143405D02*
D03*
X189862D02*
D03*
X195669Y138189D02*
D03*
Y135039D02*
D03*
X297244Y124902D02*
D03*
X211319Y128543D02*
D03*
X220276D02*
D03*
X181988Y119783D02*
D03*
Y123031D02*
D03*
X110433Y137402D02*
D03*
X96752Y266933D02*
D03*
X114567D02*
D03*
X79528D02*
D03*
X181004Y210335D02*
D03*
X315551Y244488D02*
D03*
X275197Y231496D02*
D03*
X300886Y251575D02*
D03*
X286457Y170866D02*
D03*
X295748D02*
D03*
X305039D02*
D03*
X314331D02*
D03*
X323622D02*
D03*
Y187402D02*
D03*
X314331D02*
D03*
X305039D02*
D03*
X295748D02*
D03*
X288583Y193701D02*
D03*
Y203543D02*
D03*
Y213386D02*
D03*
X290945Y219685D02*
D03*
X277165Y170866D02*
D03*
X262598Y181693D02*
D03*
X255512Y204724D02*
D03*
X251181Y209055D02*
D03*
X246063Y216535D02*
D03*
X262598Y189370D02*
D03*
Y174016D02*
D03*
X260630Y200394D02*
D03*
X51968Y174803D02*
D03*
X96457Y178740D02*
D03*
X98425Y134153D02*
D03*
X173622Y286319D02*
D03*
X190059D02*
D03*
X225098D02*
D03*
X258268Y282677D02*
D03*
X253543Y283465D02*
D03*
X94095Y68898D02*
D03*
X221850Y39173D02*
D03*
X245472D02*
D03*
X287402Y102756D02*
D03*
X75197Y42913D02*
D03*
X324311Y274016D02*
D03*
X319291Y148031D02*
D03*
X315748D02*
D03*
X312205D02*
D03*
X235827Y194980D02*
D03*
X257087Y231496D02*
D03*
X52953Y148130D02*
D03*
X57973D02*
D03*
X258661Y222244D02*
D03*
D42*
X301181Y101969D02*
Y145669D01*
X294390Y95177D02*
X301181Y101969D01*
X302461Y78937D02*
X320276D01*
X277165Y104232D02*
X302461Y78937D01*
X277165Y104232D02*
Y140945D01*
X103347Y150591D02*
X125039Y172283D01*
X190059Y266732D02*
Y276575D01*
X71457Y261122D02*
X83071D01*
X56496Y276083D02*
X71457Y261122D01*
X49409Y276083D02*
X56496D01*
X114567Y253150D02*
X154232Y253150D01*
X102461Y241732D02*
X118898D01*
X83071Y261122D02*
X102461Y241732D01*
X129429Y247047D02*
X165157D01*
X129429Y217224D02*
Y247047D01*
X124213D02*
X129429D01*
X125039Y212835D02*
X129429Y217224D01*
X118898Y241732D02*
X124213Y247047D01*
X39665Y213779D02*
Y271654D01*
X44094Y276083D01*
X49409D01*
X125039Y198425D02*
Y212835D01*
Y172283D02*
Y198425D01*
X165157Y247047D02*
X177953Y259842D01*
X235039D01*
X91339Y88976D02*
Y113878D01*
X103347Y125886D01*
Y150591D01*
D43*
X110433Y134055D02*
X118701Y125787D01*
Y118110D02*
Y125787D01*
X106299Y90158D02*
Y113091D01*
X251772Y129035D02*
X260039Y137303D01*
X251772Y50197D02*
Y129035D01*
X188976Y247244D02*
X206398D01*
X173031Y231299D02*
X188976Y247244D01*
X153445Y231299D02*
X173031D01*
X139075Y133268D02*
Y150394D01*
Y133268D02*
X157874Y114469D01*
X197244Y199508D02*
X197244D01*
X110433Y134055D02*
Y137402D01*
X157874Y109843D02*
Y114469D01*
X90945Y42913D02*
X101339D01*
X138976Y80551D01*
D45*
X269587Y175295D02*
X269685Y175197D01*
X86339Y82677D02*
X105905D01*
X83976Y80315D02*
X86339Y82677D01*
X183760Y140453D02*
X186909D01*
X189862Y143405D01*
X206496Y144095D02*
X211417Y149016D01*
X206496Y115453D02*
Y144095D01*
X54429Y269685D02*
X54528Y269587D01*
X114567Y253150D02*
X154232D01*
X198917Y103150D02*
Y110531D01*
Y103150D02*
X220472Y81595D01*
X231988D01*
X201575Y110531D02*
X206496Y115453D01*
X198917Y110531D02*
X201575D01*
X181693Y123031D02*
X181841Y122884D01*
X181988Y123031D02*
X184350Y120669D01*
X196850D01*
X198917Y118602D01*
Y115256D02*
Y118602D01*
X183957Y118012D02*
X195669D01*
X182185Y119783D02*
X183957Y118012D01*
X181988Y119783D02*
X182185D01*
X215748Y139075D02*
X220276D01*
X246654Y112697D01*
X184449Y135039D02*
X195669D01*
X177165Y127756D02*
X184449Y135039D01*
X177165Y54626D02*
Y127756D01*
X175098Y128839D02*
X184449Y138189D01*
X172933Y129626D02*
X183760Y140453D01*
X172933Y70571D02*
Y129626D01*
X170965Y130610D02*
X183760Y143405D01*
X145669Y85827D02*
X167815Y107972D01*
Y119980D01*
X166831Y120965D02*
X167815Y119980D01*
X165551Y120965D02*
X166831D01*
X165551Y108858D02*
Y118012D01*
X151969Y95276D02*
X165551Y108858D01*
X184449Y138189D02*
X195669D01*
X183760Y143405D02*
X186909D01*
X127953Y88583D02*
X134646Y95276D01*
X111811Y88583D02*
X127953D01*
X94882Y173228D02*
X105905D01*
X110236Y177559D01*
Y180315D01*
X108268Y80315D02*
X113779Y85827D01*
X99213Y80315D02*
X108268D01*
X105905Y82677D02*
X111811Y88583D01*
X134646Y95276D02*
X151969D01*
X113779Y85827D02*
X145669D01*
X170965Y72146D02*
Y130610D01*
X69784Y148130D02*
X94882Y173228D01*
X52953Y148130D02*
X55905Y145177D01*
X57973Y148130D02*
X69784D01*
X55905Y145177D02*
X70276D01*
X95472Y170374D01*
X110236D01*
X175098Y48031D02*
Y128839D01*
X177165Y54626D02*
X179429Y52362D01*
Y48031D02*
Y52362D01*
X175039Y47972D02*
X175098Y48031D01*
D46*
X267480Y225433D02*
X277008D01*
X54528Y258661D02*
Y269587D01*
X139075Y150394D02*
X179134D01*
X205512Y176772D01*
Y191240D01*
X197244Y199508D02*
X205512Y191240D01*
X257087Y231496D02*
X261417D01*
X267480Y225433D01*
X179429Y46555D02*
X185039Y40945D01*
X179429Y46555D02*
Y48031D01*
X175039Y40945D02*
Y47972D01*
X165039Y40945D02*
X170177Y46083D01*
Y47933D01*
X155039Y40945D02*
X159961Y45866D01*
D47*
X269587Y175295D02*
Y181595D01*
Y194783D02*
X269685Y194882D01*
X269587Y188484D02*
Y194783D01*
X185039Y198425D02*
X194095Y207480D01*
X275197Y231496D02*
X295276Y251575D01*
X300886D01*
X194095Y207480D02*
X223228D01*
X235827Y194882D01*
X235827Y194882D01*
Y194980D01*
X269587D02*
X269685Y194882D01*
X235827Y194980D02*
X269587D01*
D48*
X170177Y47933D02*
Y51772D01*
X172933Y54528D01*
Y70571D01*
X159961Y45866D02*
X160138D01*
X170965Y56693D01*
Y72146D01*
D50*
X25591Y299213D02*
D03*
X328740D02*
D03*
Y31496D02*
D03*
X25591Y31890D02*
D03*
D51*
X22047Y211417D02*
D03*
Y255512D02*
D03*
Y57874D02*
D03*
Y98425D02*
D03*
Y157480D02*
D03*
D52*
Y219291D02*
D03*
Y227165D02*
D03*
Y271260D02*
D03*
Y263386D02*
D03*
X287106Y40650D02*
D03*
X22047Y65748D02*
D03*
Y73622D02*
D03*
Y106299D02*
D03*
Y114173D02*
D03*
Y165354D02*
D03*
Y173228D02*
D03*
D53*
X294980Y40650D02*
D03*
D54*
X299528Y198819D02*
D03*
X329528D02*
D03*
D55*
X299528Y178819D02*
D03*
X329528D02*
D03*
D56*
X138976Y100551D02*
D03*
Y90551D02*
D03*
Y110551D02*
D03*
Y160394D02*
D03*
Y170394D02*
D03*
Y150394D02*
D03*
X115039Y40945D02*
D03*
X125039D02*
D03*
X135039D02*
D03*
X145039D02*
D03*
X165039D02*
D03*
X175039D02*
D03*
X155039D02*
D03*
X115039Y198425D02*
D03*
X125039D02*
D03*
X135039D02*
D03*
X145039D02*
D03*
X165039D02*
D03*
X175039D02*
D03*
X155039D02*
D03*
X269685Y175197D02*
D03*
D57*
X138976Y80551D02*
D03*
Y180394D02*
D03*
D58*
X185039Y40945D02*
D03*
Y198425D02*
D03*
X269685Y194882D02*
D03*
D59*
X325689Y115256D02*
D03*
Y132579D02*
D03*
M02*
